G04 #@! TF.GenerationSoftware,KiCad,Pcbnew,5.1.2-f72e74a~84~ubuntu18.04.1*
G04 #@! TF.CreationDate,2019-08-10T09:51:38+02:00*
G04 #@! TF.ProjectId,RPI_Peripheral_Expander,5250495f-5065-4726-9970-686572616c5f,rev?*
G04 #@! TF.SameCoordinates,Original*
G04 #@! TF.FileFunction,Legend,Bot*
G04 #@! TF.FilePolarity,Positive*
%FSLAX46Y46*%
G04 Gerber Fmt 4.6, Leading zero omitted, Abs format (unit mm)*
G04 Created by KiCad (PCBNEW 5.1.2-f72e74a~84~ubuntu18.04.1) date 2019-08-10 09:51:38*
%MOMM*%
%LPD*%
G04 APERTURE LIST*
%ADD10C,0.150000*%
%ADD11C,0.120000*%
%ADD12C,0.125000*%
G04 APERTURE END LIST*
D10*
X228577942Y-125157161D02*
X228435085Y-125204780D01*
X228196990Y-125204780D01*
X228101752Y-125157161D01*
X228054133Y-125109542D01*
X228006514Y-125014304D01*
X228006514Y-124919066D01*
X228054133Y-124823828D01*
X228101752Y-124776209D01*
X228196990Y-124728590D01*
X228387466Y-124680971D01*
X228482704Y-124633352D01*
X228530323Y-124585733D01*
X228577942Y-124490495D01*
X228577942Y-124395257D01*
X228530323Y-124300019D01*
X228482704Y-124252400D01*
X228387466Y-124204780D01*
X228149371Y-124204780D01*
X228006514Y-124252400D01*
X227196990Y-125157161D02*
X227292228Y-125204780D01*
X227482704Y-125204780D01*
X227577942Y-125157161D01*
X227625561Y-125061923D01*
X227625561Y-124680971D01*
X227577942Y-124585733D01*
X227482704Y-124538114D01*
X227292228Y-124538114D01*
X227196990Y-124585733D01*
X227149371Y-124680971D01*
X227149371Y-124776209D01*
X227625561Y-124871447D01*
X226720800Y-125204780D02*
X226720800Y-124538114D01*
X226720800Y-124728590D02*
X226673180Y-124633352D01*
X226625561Y-124585733D01*
X226530323Y-124538114D01*
X226435085Y-124538114D01*
X226196990Y-124538114D02*
X225958895Y-125204780D01*
X225720800Y-124538114D01*
X225196990Y-125204780D02*
X225292228Y-125157161D01*
X225339847Y-125109542D01*
X225387466Y-125014304D01*
X225387466Y-124728590D01*
X225339847Y-124633352D01*
X225292228Y-124585733D01*
X225196990Y-124538114D01*
X225054133Y-124538114D01*
X224958895Y-124585733D01*
X224911276Y-124633352D01*
X224863657Y-124728590D01*
X224863657Y-125014304D01*
X224911276Y-125109542D01*
X224958895Y-125157161D01*
X225054133Y-125204780D01*
X225196990Y-125204780D01*
X228425542Y-136942761D02*
X228282685Y-136990380D01*
X228044590Y-136990380D01*
X227949352Y-136942761D01*
X227901733Y-136895142D01*
X227854114Y-136799904D01*
X227854114Y-136704666D01*
X227901733Y-136609428D01*
X227949352Y-136561809D01*
X228044590Y-136514190D01*
X228235066Y-136466571D01*
X228330304Y-136418952D01*
X228377923Y-136371333D01*
X228425542Y-136276095D01*
X228425542Y-136180857D01*
X228377923Y-136085619D01*
X228330304Y-136038000D01*
X228235066Y-135990380D01*
X227996971Y-135990380D01*
X227854114Y-136038000D01*
X227044590Y-136942761D02*
X227139828Y-136990380D01*
X227330304Y-136990380D01*
X227425542Y-136942761D01*
X227473161Y-136847523D01*
X227473161Y-136466571D01*
X227425542Y-136371333D01*
X227330304Y-136323714D01*
X227139828Y-136323714D01*
X227044590Y-136371333D01*
X226996971Y-136466571D01*
X226996971Y-136561809D01*
X227473161Y-136657047D01*
X226568400Y-136990380D02*
X226568400Y-136323714D01*
X226568400Y-136514190D02*
X226520780Y-136418952D01*
X226473161Y-136371333D01*
X226377923Y-136323714D01*
X226282685Y-136323714D01*
X226044590Y-136323714D02*
X225806495Y-136990380D01*
X225568400Y-136323714D01*
X225044590Y-136990380D02*
X225139828Y-136942761D01*
X225187447Y-136895142D01*
X225235066Y-136799904D01*
X225235066Y-136514190D01*
X225187447Y-136418952D01*
X225139828Y-136371333D01*
X225044590Y-136323714D01*
X224901733Y-136323714D01*
X224806495Y-136371333D01*
X224758876Y-136418952D01*
X224711257Y-136514190D01*
X224711257Y-136799904D01*
X224758876Y-136895142D01*
X224806495Y-136942761D01*
X224901733Y-136990380D01*
X225044590Y-136990380D01*
X214537961Y-112428628D02*
X213776057Y-112428628D01*
X214157009Y-112809580D02*
X214157009Y-112047676D01*
X212823676Y-111809580D02*
X213299866Y-111809580D01*
X213347485Y-112285771D01*
X213299866Y-112238152D01*
X213204628Y-112190533D01*
X212966533Y-112190533D01*
X212871295Y-112238152D01*
X212823676Y-112285771D01*
X212776057Y-112381009D01*
X212776057Y-112619104D01*
X212823676Y-112714342D01*
X212871295Y-112761961D01*
X212966533Y-112809580D01*
X213204628Y-112809580D01*
X213299866Y-112761961D01*
X213347485Y-112714342D01*
X212490342Y-111809580D02*
X212157009Y-112809580D01*
X211823676Y-111809580D01*
X210157009Y-112809580D02*
X210490342Y-112333390D01*
X210728438Y-112809580D02*
X210728438Y-111809580D01*
X210347485Y-111809580D01*
X210252247Y-111857200D01*
X210204628Y-111904819D01*
X210157009Y-112000057D01*
X210157009Y-112142914D01*
X210204628Y-112238152D01*
X210252247Y-112285771D01*
X210347485Y-112333390D01*
X210728438Y-112333390D01*
X209728438Y-112809580D02*
X209728438Y-111809580D01*
X209347485Y-111809580D01*
X209252247Y-111857200D01*
X209204628Y-111904819D01*
X209157009Y-112000057D01*
X209157009Y-112142914D01*
X209204628Y-112238152D01*
X209252247Y-112285771D01*
X209347485Y-112333390D01*
X209728438Y-112333390D01*
X208728438Y-112809580D02*
X208728438Y-111809580D01*
X213588952Y-106586628D02*
X212827047Y-106586628D01*
X208407352Y-130462628D02*
X207645447Y-130462628D01*
X213792152Y-141689428D02*
X213030247Y-141689428D01*
X235077352Y-107551828D02*
X234315447Y-107551828D01*
X259918552Y-103538628D02*
X259156647Y-103538628D01*
X203306819Y-135077714D02*
X203259200Y-135125333D01*
X203211580Y-135220571D01*
X203211580Y-135458666D01*
X203259200Y-135553904D01*
X203306819Y-135601523D01*
X203402057Y-135649142D01*
X203497295Y-135649142D01*
X203640152Y-135601523D01*
X204211580Y-135030095D01*
X204211580Y-135649142D01*
X203211580Y-136268190D02*
X203211580Y-136363428D01*
X203259200Y-136458666D01*
X203306819Y-136506285D01*
X203402057Y-136553904D01*
X203592533Y-136601523D01*
X203830628Y-136601523D01*
X204021104Y-136553904D01*
X204116342Y-136506285D01*
X204163961Y-136458666D01*
X204211580Y-136363428D01*
X204211580Y-136268190D01*
X204163961Y-136172952D01*
X204116342Y-136125333D01*
X204021104Y-136077714D01*
X203830628Y-136030095D01*
X203592533Y-136030095D01*
X203402057Y-136077714D01*
X203306819Y-136125333D01*
X203259200Y-136172952D01*
X203211580Y-136268190D01*
X204211580Y-137553904D02*
X204211580Y-136982476D01*
X204211580Y-137268190D02*
X203211580Y-137268190D01*
X203354438Y-137172952D01*
X203449676Y-137077714D01*
X203497295Y-136982476D01*
X204211580Y-138030095D02*
X204211580Y-138220571D01*
X204163961Y-138315809D01*
X204116342Y-138363428D01*
X203973485Y-138458666D01*
X203783009Y-138506285D01*
X203402057Y-138506285D01*
X203306819Y-138458666D01*
X203259200Y-138411047D01*
X203211580Y-138315809D01*
X203211580Y-138125333D01*
X203259200Y-138030095D01*
X203306819Y-137982476D01*
X203402057Y-137934857D01*
X203640152Y-137934857D01*
X203735390Y-137982476D01*
X203783009Y-138030095D01*
X203830628Y-138125333D01*
X203830628Y-138315809D01*
X203783009Y-138411047D01*
X203735390Y-138458666D01*
X203640152Y-138506285D01*
X229437409Y-147239780D02*
X229770742Y-146763590D01*
X230008838Y-147239780D02*
X230008838Y-146239780D01*
X229627885Y-146239780D01*
X229532647Y-146287400D01*
X229485028Y-146335019D01*
X229437409Y-146430257D01*
X229437409Y-146573114D01*
X229485028Y-146668352D01*
X229532647Y-146715971D01*
X229627885Y-146763590D01*
X230008838Y-146763590D01*
X229008838Y-147239780D02*
X229008838Y-146239780D01*
X228627885Y-146239780D01*
X228532647Y-146287400D01*
X228485028Y-146335019D01*
X228437409Y-146430257D01*
X228437409Y-146573114D01*
X228485028Y-146668352D01*
X228532647Y-146715971D01*
X228627885Y-146763590D01*
X229008838Y-146763590D01*
X228008838Y-147239780D02*
X228008838Y-146239780D01*
X227770742Y-147335019D02*
X227008838Y-147335019D01*
X226770742Y-147239780D02*
X226770742Y-146239780D01*
X226389790Y-146239780D01*
X226294552Y-146287400D01*
X226246933Y-146335019D01*
X226199314Y-146430257D01*
X226199314Y-146573114D01*
X226246933Y-146668352D01*
X226294552Y-146715971D01*
X226389790Y-146763590D01*
X226770742Y-146763590D01*
X225770742Y-146715971D02*
X225437409Y-146715971D01*
X225294552Y-147239780D02*
X225770742Y-147239780D01*
X225770742Y-146239780D01*
X225294552Y-146239780D01*
X224294552Y-147239780D02*
X224627885Y-146763590D01*
X224865980Y-147239780D02*
X224865980Y-146239780D01*
X224485028Y-146239780D01*
X224389790Y-146287400D01*
X224342171Y-146335019D01*
X224294552Y-146430257D01*
X224294552Y-146573114D01*
X224342171Y-146668352D01*
X224389790Y-146715971D01*
X224485028Y-146763590D01*
X224865980Y-146763590D01*
X223865980Y-147239780D02*
X223865980Y-146239780D01*
X223389790Y-147239780D02*
X223389790Y-146239780D01*
X223008838Y-146239780D01*
X222913600Y-146287400D01*
X222865980Y-146335019D01*
X222818361Y-146430257D01*
X222818361Y-146573114D01*
X222865980Y-146668352D01*
X222913600Y-146715971D01*
X223008838Y-146763590D01*
X223389790Y-146763590D01*
X222389790Y-147239780D02*
X222389790Y-146239780D01*
X222389790Y-146715971D02*
X221818361Y-146715971D01*
X221818361Y-147239780D02*
X221818361Y-146239780D01*
X221342171Y-146715971D02*
X221008838Y-146715971D01*
X220865980Y-147239780D02*
X221342171Y-147239780D01*
X221342171Y-146239780D01*
X220865980Y-146239780D01*
X219865980Y-147239780D02*
X220199314Y-146763590D01*
X220437409Y-147239780D02*
X220437409Y-146239780D01*
X220056457Y-146239780D01*
X219961219Y-146287400D01*
X219913600Y-146335019D01*
X219865980Y-146430257D01*
X219865980Y-146573114D01*
X219913600Y-146668352D01*
X219961219Y-146715971D01*
X220056457Y-146763590D01*
X220437409Y-146763590D01*
X219485028Y-146954066D02*
X219008838Y-146954066D01*
X219580266Y-147239780D02*
X219246933Y-146239780D01*
X218913600Y-147239780D01*
X218104076Y-147239780D02*
X218580266Y-147239780D01*
X218580266Y-146239780D01*
X218008838Y-147335019D02*
X217246933Y-147335019D01*
X217008838Y-146715971D02*
X216675504Y-146715971D01*
X216532647Y-147239780D02*
X217008838Y-147239780D01*
X217008838Y-146239780D01*
X216532647Y-146239780D01*
X216199314Y-146239780D02*
X215532647Y-147239780D01*
X215532647Y-146239780D02*
X216199314Y-147239780D01*
X215151695Y-147239780D02*
X215151695Y-146239780D01*
X214770742Y-146239780D01*
X214675504Y-146287400D01*
X214627885Y-146335019D01*
X214580266Y-146430257D01*
X214580266Y-146573114D01*
X214627885Y-146668352D01*
X214675504Y-146715971D01*
X214770742Y-146763590D01*
X215151695Y-146763590D01*
X214199314Y-146954066D02*
X213723123Y-146954066D01*
X214294552Y-147239780D02*
X213961219Y-146239780D01*
X213627885Y-147239780D01*
X213294552Y-147239780D02*
X213294552Y-146239780D01*
X212723123Y-147239780D01*
X212723123Y-146239780D01*
X212246933Y-147239780D02*
X212246933Y-146239780D01*
X212008838Y-146239780D01*
X211865980Y-146287400D01*
X211770742Y-146382638D01*
X211723123Y-146477876D01*
X211675504Y-146668352D01*
X211675504Y-146811209D01*
X211723123Y-147001685D01*
X211770742Y-147096923D01*
X211865980Y-147192161D01*
X212008838Y-147239780D01*
X212246933Y-147239780D01*
X211246933Y-146715971D02*
X210913600Y-146715971D01*
X210770742Y-147239780D02*
X211246933Y-147239780D01*
X211246933Y-146239780D01*
X210770742Y-146239780D01*
X209770742Y-147239780D02*
X210104076Y-146763590D01*
X210342171Y-147239780D02*
X210342171Y-146239780D01*
X209961219Y-146239780D01*
X209865980Y-146287400D01*
X209818361Y-146335019D01*
X209770742Y-146430257D01*
X209770742Y-146573114D01*
X209818361Y-146668352D01*
X209865980Y-146715971D01*
X209961219Y-146763590D01*
X210342171Y-146763590D01*
X221437409Y-147889780D02*
X221104076Y-148889780D01*
X220770742Y-147889780D01*
X219913600Y-148889780D02*
X220485028Y-148889780D01*
X220199314Y-148889780D02*
X220199314Y-147889780D01*
X220294552Y-148032638D01*
X220389790Y-148127876D01*
X220485028Y-148175495D01*
X219485028Y-148794542D02*
X219437409Y-148842161D01*
X219485028Y-148889780D01*
X219532647Y-148842161D01*
X219485028Y-148794542D01*
X219485028Y-148889780D01*
X218818361Y-147889780D02*
X218723123Y-147889780D01*
X218627885Y-147937400D01*
X218580266Y-147985019D01*
X218532647Y-148080257D01*
X218485028Y-148270733D01*
X218485028Y-148508828D01*
X218532647Y-148699304D01*
X218580266Y-148794542D01*
X218627885Y-148842161D01*
X218723123Y-148889780D01*
X218818361Y-148889780D01*
X218913600Y-148842161D01*
X218961219Y-148794542D01*
X219008838Y-148699304D01*
X219056457Y-148508828D01*
X219056457Y-148270733D01*
X219008838Y-148080257D01*
X218961219Y-147985019D01*
X218913600Y-147937400D01*
X218818361Y-147889780D01*
X235026552Y-147328228D02*
X234264647Y-147328228D01*
X256433244Y-142334170D02*
X255894496Y-142872918D01*
X256433244Y-142872918D02*
X255894496Y-142334170D01*
X254783329Y-143108620D02*
X255120046Y-142771903D01*
X255490435Y-143074948D01*
X255423092Y-143074948D01*
X255322077Y-143108620D01*
X255153718Y-143276979D01*
X255120046Y-143377994D01*
X255120046Y-143445338D01*
X255153718Y-143546353D01*
X255322077Y-143714712D01*
X255423092Y-143748383D01*
X255490435Y-143748383D01*
X255591451Y-143714712D01*
X255759809Y-143546353D01*
X255793481Y-143445338D01*
X255793481Y-143377994D01*
X254547626Y-143344322D02*
X255019031Y-144287131D01*
X254076222Y-143815727D01*
X262224444Y-134663370D02*
X261685696Y-135202118D01*
X262224444Y-135202118D02*
X261685696Y-134663370D01*
X260574529Y-135437820D02*
X260911246Y-135101103D01*
X261281635Y-135404148D01*
X261214292Y-135404148D01*
X261113277Y-135437820D01*
X260944918Y-135606179D01*
X260911246Y-135707194D01*
X260911246Y-135774538D01*
X260944918Y-135875553D01*
X261113277Y-136043912D01*
X261214292Y-136077583D01*
X261281635Y-136077583D01*
X261382651Y-136043912D01*
X261551009Y-135875553D01*
X261584681Y-135774538D01*
X261584681Y-135707194D01*
X260338826Y-135673522D02*
X260810231Y-136616331D01*
X259867422Y-136144927D01*
X258038952Y-136406228D02*
X257277047Y-136406228D01*
X259258152Y-128532228D02*
X258496247Y-128532228D01*
X264104044Y-127348170D02*
X263565296Y-127886918D01*
X264104044Y-127886918D02*
X263565296Y-127348170D01*
X262454129Y-128122620D02*
X262790846Y-127785903D01*
X263161235Y-128088948D01*
X263093892Y-128088948D01*
X262992877Y-128122620D01*
X262824518Y-128290979D01*
X262790846Y-128391994D01*
X262790846Y-128459338D01*
X262824518Y-128560353D01*
X262992877Y-128728712D01*
X263093892Y-128762383D01*
X263161235Y-128762383D01*
X263262251Y-128728712D01*
X263430609Y-128560353D01*
X263464281Y-128459338D01*
X263464281Y-128391994D01*
X262218426Y-128358322D02*
X262689831Y-129301131D01*
X261747022Y-128829727D01*
X262173644Y-112768570D02*
X261634896Y-113307318D01*
X262173644Y-113307318D02*
X261634896Y-112768570D01*
X260523729Y-113543020D02*
X260860446Y-113206303D01*
X261230835Y-113509348D01*
X261163492Y-113509348D01*
X261062477Y-113543020D01*
X260894118Y-113711379D01*
X260860446Y-113812394D01*
X260860446Y-113879738D01*
X260894118Y-113980753D01*
X261062477Y-114149112D01*
X261163492Y-114182783D01*
X261230835Y-114182783D01*
X261331851Y-114149112D01*
X261500209Y-113980753D01*
X261533881Y-113879738D01*
X261533881Y-113812394D01*
X260288026Y-113778722D02*
X260759431Y-114721531D01*
X259816622Y-114250127D01*
X263646844Y-101795770D02*
X263108096Y-102334518D01*
X263646844Y-102334518D02*
X263108096Y-101795770D01*
X261996929Y-102570220D02*
X262333646Y-102233503D01*
X262704035Y-102536548D01*
X262636692Y-102536548D01*
X262535677Y-102570220D01*
X262367318Y-102738579D01*
X262333646Y-102839594D01*
X262333646Y-102906938D01*
X262367318Y-103007953D01*
X262535677Y-103176312D01*
X262636692Y-103209983D01*
X262704035Y-103209983D01*
X262805051Y-103176312D01*
X262973409Y-103007953D01*
X263007081Y-102906938D01*
X263007081Y-102839594D01*
X261761226Y-102805922D02*
X262232631Y-103748731D01*
X261289822Y-103277327D01*
X219400044Y-100373370D02*
X218861296Y-100912118D01*
X219400044Y-100912118D02*
X218861296Y-100373370D01*
X217750129Y-101147820D02*
X218086846Y-100811103D01*
X218457235Y-101114148D01*
X218389892Y-101114148D01*
X218288877Y-101147820D01*
X218120518Y-101316179D01*
X218086846Y-101417194D01*
X218086846Y-101484538D01*
X218120518Y-101585553D01*
X218288877Y-101753912D01*
X218389892Y-101787583D01*
X218457235Y-101787583D01*
X218558251Y-101753912D01*
X218726609Y-101585553D01*
X218760281Y-101484538D01*
X218760281Y-101417194D01*
X217514426Y-101383522D02*
X217985831Y-102326331D01*
X217043022Y-101854927D01*
X238928514Y-107805828D02*
X238166609Y-107805828D01*
X238547561Y-108186780D02*
X238547561Y-107424876D01*
X237214228Y-107186780D02*
X237690419Y-107186780D01*
X237738038Y-107662971D01*
X237690419Y-107615352D01*
X237595180Y-107567733D01*
X237357085Y-107567733D01*
X237261847Y-107615352D01*
X237214228Y-107662971D01*
X237166609Y-107758209D01*
X237166609Y-107996304D01*
X237214228Y-108091542D01*
X237261847Y-108139161D01*
X237357085Y-108186780D01*
X237595180Y-108186780D01*
X237690419Y-108139161D01*
X237738038Y-108091542D01*
X236880895Y-107186780D02*
X236547561Y-108186780D01*
X236214228Y-107186780D01*
D11*
X245495936Y-114800000D02*
X246700064Y-114800000D01*
X245495936Y-116620000D02*
X246700064Y-116620000D01*
X207040000Y-94900000D02*
X207040000Y-97500000D01*
X207040000Y-94900000D02*
X257960000Y-94900000D01*
X257960000Y-94900000D02*
X257960000Y-100100000D01*
X209640000Y-100100000D02*
X257960000Y-100100000D01*
X209640000Y-97500000D02*
X209640000Y-100100000D01*
X207040000Y-97500000D02*
X209640000Y-97500000D01*
X207040000Y-100100000D02*
X208370000Y-100100000D01*
X207040000Y-98770000D02*
X207040000Y-100100000D01*
X238714000Y-117836064D02*
X238714000Y-116631936D01*
X240534000Y-117836064D02*
X240534000Y-116631936D01*
X235589936Y-102650000D02*
X236794064Y-102650000D01*
X235589936Y-100830000D02*
X236794064Y-100830000D01*
X246700064Y-107688000D02*
X245495936Y-107688000D01*
X246700064Y-109508000D02*
X245495936Y-109508000D01*
X240788000Y-137075936D02*
X240788000Y-138280064D01*
X238968000Y-137075936D02*
X238968000Y-138280064D01*
X252353936Y-147566000D02*
X253558064Y-147566000D01*
X252353936Y-149386000D02*
X253558064Y-149386000D01*
X245495936Y-137194000D02*
X246700064Y-137194000D01*
X245495936Y-135374000D02*
X246700064Y-135374000D01*
X245495936Y-132580000D02*
X246700064Y-132580000D01*
X245495936Y-134400000D02*
X246700064Y-134400000D01*
X245495936Y-117848000D02*
X246700064Y-117848000D01*
X245495936Y-119668000D02*
X246700064Y-119668000D01*
X258201936Y-120430000D02*
X259406064Y-120430000D01*
X258201936Y-118610000D02*
X259406064Y-118610000D01*
X245495936Y-127542000D02*
X246700064Y-127542000D01*
X245495936Y-125722000D02*
X246700064Y-125722000D01*
X245495936Y-122674000D02*
X246700064Y-122674000D01*
X245495936Y-124494000D02*
X246700064Y-124494000D01*
X211654064Y-101338000D02*
X210449936Y-101338000D01*
X211654064Y-103158000D02*
X210449936Y-103158000D01*
X259725936Y-134400000D02*
X260930064Y-134400000D01*
X259725936Y-132580000D02*
X260930064Y-132580000D01*
X254326064Y-107688000D02*
X253121936Y-107688000D01*
X254326064Y-109508000D02*
X253121936Y-109508000D01*
X256098064Y-101592000D02*
X254893936Y-101592000D01*
X256098064Y-103412000D02*
X254893936Y-103412000D01*
X245495936Y-138168000D02*
X246700064Y-138168000D01*
X245495936Y-139988000D02*
X246700064Y-139988000D01*
X247595200Y-146284064D02*
X247595200Y-145079936D01*
X245775200Y-146284064D02*
X245775200Y-145079936D01*
X249819936Y-142232000D02*
X251024064Y-142232000D01*
X249819936Y-144052000D02*
X251024064Y-144052000D01*
X254320064Y-141766000D02*
X253115936Y-141766000D01*
X254320064Y-139946000D02*
X253115936Y-139946000D01*
X253488000Y-137778064D02*
X253488000Y-136573936D01*
X251668000Y-137778064D02*
X251668000Y-136573936D01*
X221950000Y-107233936D02*
X221950000Y-108438064D01*
X223770000Y-107233936D02*
X223770000Y-108438064D01*
X254320064Y-121446000D02*
X253115936Y-121446000D01*
X254320064Y-119626000D02*
X253115936Y-119626000D01*
X253234000Y-123365936D02*
X253234000Y-124570064D01*
X251414000Y-123365936D02*
X251414000Y-124570064D01*
X221230000Y-107233936D02*
X221230000Y-108438064D01*
X219410000Y-107233936D02*
X219410000Y-108438064D01*
X255082064Y-112514000D02*
X253877936Y-112514000D01*
X255082064Y-114334000D02*
X253877936Y-114334000D01*
X253488000Y-116247936D02*
X253488000Y-117452064D01*
X251668000Y-116247936D02*
X251668000Y-117452064D01*
X254326064Y-132580000D02*
X253121936Y-132580000D01*
X254326064Y-134400000D02*
X253121936Y-134400000D01*
X246700064Y-130082000D02*
X245495936Y-130082000D01*
X246700064Y-128262000D02*
X245495936Y-128262000D01*
X256987064Y-126738000D02*
X255782936Y-126738000D01*
X256987064Y-128558000D02*
X255782936Y-128558000D01*
X246706064Y-122081000D02*
X245501936Y-122081000D01*
X246706064Y-120261000D02*
X245501936Y-120261000D01*
X260481936Y-109508000D02*
X261686064Y-109508000D01*
X260481936Y-107688000D02*
X261686064Y-107688000D01*
D10*
X246667657Y-114339942D02*
X246715276Y-114387561D01*
X246858133Y-114435180D01*
X246953371Y-114435180D01*
X247096228Y-114387561D01*
X247191466Y-114292323D01*
X247239085Y-114197085D01*
X247286704Y-114006609D01*
X247286704Y-113863752D01*
X247239085Y-113673276D01*
X247191466Y-113578038D01*
X247096228Y-113482800D01*
X246953371Y-113435180D01*
X246858133Y-113435180D01*
X246715276Y-113482800D01*
X246667657Y-113530419D01*
X245715276Y-114435180D02*
X246286704Y-114435180D01*
X246000990Y-114435180D02*
X246000990Y-113435180D01*
X246096228Y-113578038D01*
X246191466Y-113673276D01*
X246286704Y-113720895D01*
X244810514Y-113435180D02*
X245286704Y-113435180D01*
X245334323Y-113911371D01*
X245286704Y-113863752D01*
X245191466Y-113816133D01*
X244953371Y-113816133D01*
X244858133Y-113863752D01*
X244810514Y-113911371D01*
X244762895Y-114006609D01*
X244762895Y-114244704D01*
X244810514Y-114339942D01*
X244858133Y-114387561D01*
X244953371Y-114435180D01*
X245191466Y-114435180D01*
X245286704Y-114387561D01*
X245334323Y-114339942D01*
X207596095Y-101430380D02*
X207596095Y-100430380D01*
X207215142Y-100430380D01*
X207119904Y-100478000D01*
X207072285Y-100525619D01*
X207024666Y-100620857D01*
X207024666Y-100763714D01*
X207072285Y-100858952D01*
X207119904Y-100906571D01*
X207215142Y-100954190D01*
X207596095Y-100954190D01*
X206072285Y-101430380D02*
X206643714Y-101430380D01*
X206358000Y-101430380D02*
X206358000Y-100430380D01*
X206453238Y-100573238D01*
X206548476Y-100668476D01*
X206643714Y-100716095D01*
X239790666Y-114543142D02*
X239838285Y-114590761D01*
X239981142Y-114638380D01*
X240076380Y-114638380D01*
X240219238Y-114590761D01*
X240314476Y-114495523D01*
X240362095Y-114400285D01*
X240409714Y-114209809D01*
X240409714Y-114066952D01*
X240362095Y-113876476D01*
X240314476Y-113781238D01*
X240219238Y-113686000D01*
X240076380Y-113638380D01*
X239981142Y-113638380D01*
X239838285Y-113686000D01*
X239790666Y-113733619D01*
X239409714Y-113733619D02*
X239362095Y-113686000D01*
X239266857Y-113638380D01*
X239028761Y-113638380D01*
X238933523Y-113686000D01*
X238885904Y-113733619D01*
X238838285Y-113828857D01*
X238838285Y-113924095D01*
X238885904Y-114066952D01*
X239457333Y-114638380D01*
X238838285Y-114638380D01*
X239790666Y-101843142D02*
X239838285Y-101890761D01*
X239981142Y-101938380D01*
X240076380Y-101938380D01*
X240219238Y-101890761D01*
X240314476Y-101795523D01*
X240362095Y-101700285D01*
X240409714Y-101509809D01*
X240409714Y-101366952D01*
X240362095Y-101176476D01*
X240314476Y-101081238D01*
X240219238Y-100986000D01*
X240076380Y-100938380D01*
X239981142Y-100938380D01*
X239838285Y-100986000D01*
X239790666Y-101033619D01*
X238885904Y-100938380D02*
X239362095Y-100938380D01*
X239409714Y-101414571D01*
X239362095Y-101366952D01*
X239266857Y-101319333D01*
X239028761Y-101319333D01*
X238933523Y-101366952D01*
X238885904Y-101414571D01*
X238838285Y-101509809D01*
X238838285Y-101747904D01*
X238885904Y-101843142D01*
X238933523Y-101890761D01*
X239028761Y-101938380D01*
X239266857Y-101938380D01*
X239362095Y-101890761D01*
X239409714Y-101843142D01*
X246343866Y-107227942D02*
X246391485Y-107275561D01*
X246534342Y-107323180D01*
X246629580Y-107323180D01*
X246772438Y-107275561D01*
X246867676Y-107180323D01*
X246915295Y-107085085D01*
X246962914Y-106894609D01*
X246962914Y-106751752D01*
X246915295Y-106561276D01*
X246867676Y-106466038D01*
X246772438Y-106370800D01*
X246629580Y-106323180D01*
X246534342Y-106323180D01*
X246391485Y-106370800D01*
X246343866Y-106418419D01*
X245486723Y-106323180D02*
X245677200Y-106323180D01*
X245772438Y-106370800D01*
X245820057Y-106418419D01*
X245915295Y-106561276D01*
X245962914Y-106751752D01*
X245962914Y-107132704D01*
X245915295Y-107227942D01*
X245867676Y-107275561D01*
X245772438Y-107323180D01*
X245581961Y-107323180D01*
X245486723Y-107275561D01*
X245439104Y-107227942D01*
X245391485Y-107132704D01*
X245391485Y-106894609D01*
X245439104Y-106799371D01*
X245486723Y-106751752D01*
X245581961Y-106704133D01*
X245772438Y-106704133D01*
X245867676Y-106751752D01*
X245915295Y-106799371D01*
X245962914Y-106894609D01*
X240044666Y-141213142D02*
X240092285Y-141260761D01*
X240235142Y-141308380D01*
X240330380Y-141308380D01*
X240473238Y-141260761D01*
X240568476Y-141165523D01*
X240616095Y-141070285D01*
X240663714Y-140879809D01*
X240663714Y-140736952D01*
X240616095Y-140546476D01*
X240568476Y-140451238D01*
X240473238Y-140356000D01*
X240330380Y-140308380D01*
X240235142Y-140308380D01*
X240092285Y-140356000D01*
X240044666Y-140403619D01*
X239711333Y-140308380D02*
X239044666Y-140308380D01*
X239473238Y-141308380D01*
X257538857Y-148833142D02*
X257586476Y-148880761D01*
X257729333Y-148928380D01*
X257824571Y-148928380D01*
X257967428Y-148880761D01*
X258062666Y-148785523D01*
X258110285Y-148690285D01*
X258157904Y-148499809D01*
X258157904Y-148356952D01*
X258110285Y-148166476D01*
X258062666Y-148071238D01*
X257967428Y-147976000D01*
X257824571Y-147928380D01*
X257729333Y-147928380D01*
X257586476Y-147976000D01*
X257538857Y-148023619D01*
X256586476Y-148928380D02*
X257157904Y-148928380D01*
X256872190Y-148928380D02*
X256872190Y-147928380D01*
X256967428Y-148071238D01*
X257062666Y-148166476D01*
X257157904Y-148214095D01*
X255967428Y-147928380D02*
X255872190Y-147928380D01*
X255776952Y-147976000D01*
X255729333Y-148023619D01*
X255681714Y-148118857D01*
X255634095Y-148309333D01*
X255634095Y-148547428D01*
X255681714Y-148737904D01*
X255729333Y-148833142D01*
X255776952Y-148880761D01*
X255872190Y-148928380D01*
X255967428Y-148928380D01*
X256062666Y-148880761D01*
X256110285Y-148833142D01*
X256157904Y-148737904D01*
X256205523Y-148547428D01*
X256205523Y-148309333D01*
X256157904Y-148118857D01*
X256110285Y-148023619D01*
X256062666Y-147976000D01*
X255967428Y-147928380D01*
D12*
X246152571Y-135962571D02*
X246176380Y-135938761D01*
X246200190Y-135867333D01*
X246200190Y-135819714D01*
X246176380Y-135748285D01*
X246128761Y-135700666D01*
X246081142Y-135676857D01*
X245985904Y-135653047D01*
X245914476Y-135653047D01*
X245819238Y-135676857D01*
X245771619Y-135700666D01*
X245724000Y-135748285D01*
X245700190Y-135819714D01*
X245700190Y-135867333D01*
X245724000Y-135938761D01*
X245747809Y-135962571D01*
X246200190Y-136438761D02*
X246200190Y-136153047D01*
X246200190Y-136295904D02*
X245700190Y-136295904D01*
X245771619Y-136248285D01*
X245819238Y-136200666D01*
X245843047Y-136153047D01*
X245747809Y-136629238D02*
X245724000Y-136653047D01*
X245700190Y-136700666D01*
X245700190Y-136819714D01*
X245724000Y-136867333D01*
X245747809Y-136891142D01*
X245795428Y-136914952D01*
X245843047Y-136914952D01*
X245914476Y-136891142D01*
X246200190Y-136605428D01*
X246200190Y-136914952D01*
D10*
X245753257Y-132119942D02*
X245800876Y-132167561D01*
X245943733Y-132215180D01*
X246038971Y-132215180D01*
X246181828Y-132167561D01*
X246277066Y-132072323D01*
X246324685Y-131977085D01*
X246372304Y-131786609D01*
X246372304Y-131643752D01*
X246324685Y-131453276D01*
X246277066Y-131358038D01*
X246181828Y-131262800D01*
X246038971Y-131215180D01*
X245943733Y-131215180D01*
X245800876Y-131262800D01*
X245753257Y-131310419D01*
X244800876Y-132215180D02*
X245372304Y-132215180D01*
X245086590Y-132215180D02*
X245086590Y-131215180D01*
X245181828Y-131358038D01*
X245277066Y-131453276D01*
X245372304Y-131500895D01*
X244467542Y-131215180D02*
X243848495Y-131215180D01*
X244181828Y-131596133D01*
X244038971Y-131596133D01*
X243943733Y-131643752D01*
X243896114Y-131691371D01*
X243848495Y-131786609D01*
X243848495Y-132024704D01*
X243896114Y-132119942D01*
X243943733Y-132167561D01*
X244038971Y-132215180D01*
X244324685Y-132215180D01*
X244419923Y-132167561D01*
X244467542Y-132119942D01*
X263126857Y-119877142D02*
X263174476Y-119924761D01*
X263317333Y-119972380D01*
X263412571Y-119972380D01*
X263555428Y-119924761D01*
X263650666Y-119829523D01*
X263698285Y-119734285D01*
X263745904Y-119543809D01*
X263745904Y-119400952D01*
X263698285Y-119210476D01*
X263650666Y-119115238D01*
X263555428Y-119020000D01*
X263412571Y-118972380D01*
X263317333Y-118972380D01*
X263174476Y-119020000D01*
X263126857Y-119067619D01*
X262174476Y-119972380D02*
X262745904Y-119972380D01*
X262460190Y-119972380D02*
X262460190Y-118972380D01*
X262555428Y-119115238D01*
X262650666Y-119210476D01*
X262745904Y-119258095D01*
X261317333Y-118972380D02*
X261507809Y-118972380D01*
X261603047Y-119020000D01*
X261650666Y-119067619D01*
X261745904Y-119210476D01*
X261793523Y-119400952D01*
X261793523Y-119781904D01*
X261745904Y-119877142D01*
X261698285Y-119924761D01*
X261603047Y-119972380D01*
X261412571Y-119972380D01*
X261317333Y-119924761D01*
X261269714Y-119877142D01*
X261222095Y-119781904D01*
X261222095Y-119543809D01*
X261269714Y-119448571D01*
X261317333Y-119400952D01*
X261412571Y-119353333D01*
X261603047Y-119353333D01*
X261698285Y-119400952D01*
X261745904Y-119448571D01*
X261793523Y-119543809D01*
D12*
X246152571Y-126310571D02*
X246176380Y-126286761D01*
X246200190Y-126215333D01*
X246200190Y-126167714D01*
X246176380Y-126096285D01*
X246128761Y-126048666D01*
X246081142Y-126024857D01*
X245985904Y-126001047D01*
X245914476Y-126001047D01*
X245819238Y-126024857D01*
X245771619Y-126048666D01*
X245724000Y-126096285D01*
X245700190Y-126167714D01*
X245700190Y-126215333D01*
X245724000Y-126286761D01*
X245747809Y-126310571D01*
X246200190Y-126786761D02*
X246200190Y-126501047D01*
X246200190Y-126643904D02*
X245700190Y-126643904D01*
X245771619Y-126596285D01*
X245819238Y-126548666D01*
X245843047Y-126501047D01*
X245700190Y-126953428D02*
X245700190Y-127286761D01*
X246200190Y-127072476D01*
X246152571Y-123262571D02*
X246176380Y-123238761D01*
X246200190Y-123167333D01*
X246200190Y-123119714D01*
X246176380Y-123048285D01*
X246128761Y-123000666D01*
X246081142Y-122976857D01*
X245985904Y-122953047D01*
X245914476Y-122953047D01*
X245819238Y-122976857D01*
X245771619Y-123000666D01*
X245724000Y-123048285D01*
X245700190Y-123119714D01*
X245700190Y-123167333D01*
X245724000Y-123238761D01*
X245747809Y-123262571D01*
X246200190Y-123738761D02*
X246200190Y-123453047D01*
X246200190Y-123595904D02*
X245700190Y-123595904D01*
X245771619Y-123548285D01*
X245819238Y-123500666D01*
X245843047Y-123453047D01*
X245914476Y-124024476D02*
X245890666Y-123976857D01*
X245866857Y-123953047D01*
X245819238Y-123929238D01*
X245795428Y-123929238D01*
X245747809Y-123953047D01*
X245724000Y-123976857D01*
X245700190Y-124024476D01*
X245700190Y-124119714D01*
X245724000Y-124167333D01*
X245747809Y-124191142D01*
X245795428Y-124214952D01*
X245819238Y-124214952D01*
X245866857Y-124191142D01*
X245890666Y-124167333D01*
X245914476Y-124119714D01*
X245914476Y-124024476D01*
X245938285Y-123976857D01*
X245962095Y-123953047D01*
X246009714Y-123929238D01*
X246104952Y-123929238D01*
X246152571Y-123953047D01*
X246176380Y-123976857D01*
X246200190Y-124024476D01*
X246200190Y-124119714D01*
X246176380Y-124167333D01*
X246152571Y-124191142D01*
X246104952Y-124214952D01*
X246009714Y-124214952D01*
X245962095Y-124191142D01*
X245938285Y-124167333D01*
X245914476Y-124119714D01*
D10*
X215628857Y-102605142D02*
X215676476Y-102652761D01*
X215819333Y-102700380D01*
X215914571Y-102700380D01*
X216057428Y-102652761D01*
X216152666Y-102557523D01*
X216200285Y-102462285D01*
X216247904Y-102271809D01*
X216247904Y-102128952D01*
X216200285Y-101938476D01*
X216152666Y-101843238D01*
X216057428Y-101748000D01*
X215914571Y-101700380D01*
X215819333Y-101700380D01*
X215676476Y-101748000D01*
X215628857Y-101795619D01*
X214676476Y-102700380D02*
X215247904Y-102700380D01*
X214962190Y-102700380D02*
X214962190Y-101700380D01*
X215057428Y-101843238D01*
X215152666Y-101938476D01*
X215247904Y-101986095D01*
X214200285Y-102700380D02*
X214009809Y-102700380D01*
X213914571Y-102652761D01*
X213866952Y-102605142D01*
X213771714Y-102462285D01*
X213724095Y-102271809D01*
X213724095Y-101890857D01*
X213771714Y-101795619D01*
X213819333Y-101748000D01*
X213914571Y-101700380D01*
X214105047Y-101700380D01*
X214200285Y-101748000D01*
X214247904Y-101795619D01*
X214295523Y-101890857D01*
X214295523Y-102128952D01*
X214247904Y-102224190D01*
X214200285Y-102271809D01*
X214105047Y-102319428D01*
X213914571Y-102319428D01*
X213819333Y-102271809D01*
X213771714Y-102224190D01*
X213724095Y-102128952D01*
X263704742Y-132643942D02*
X263752361Y-132596323D01*
X263799980Y-132453466D01*
X263799980Y-132358228D01*
X263752361Y-132215371D01*
X263657123Y-132120133D01*
X263561885Y-132072514D01*
X263371409Y-132024895D01*
X263228552Y-132024895D01*
X263038076Y-132072514D01*
X262942838Y-132120133D01*
X262847600Y-132215371D01*
X262799980Y-132358228D01*
X262799980Y-132453466D01*
X262847600Y-132596323D01*
X262895219Y-132643942D01*
X262895219Y-133024895D02*
X262847600Y-133072514D01*
X262799980Y-133167752D01*
X262799980Y-133405847D01*
X262847600Y-133501085D01*
X262895219Y-133548704D01*
X262990457Y-133596323D01*
X263085695Y-133596323D01*
X263228552Y-133548704D01*
X263799980Y-132977276D01*
X263799980Y-133596323D01*
X262799980Y-134215371D02*
X262799980Y-134310609D01*
X262847600Y-134405847D01*
X262895219Y-134453466D01*
X262990457Y-134501085D01*
X263180933Y-134548704D01*
X263419028Y-134548704D01*
X263609504Y-134501085D01*
X263704742Y-134453466D01*
X263752361Y-134405847D01*
X263799980Y-134310609D01*
X263799980Y-134215371D01*
X263752361Y-134120133D01*
X263704742Y-134072514D01*
X263609504Y-134024895D01*
X263419028Y-133977276D01*
X263180933Y-133977276D01*
X262990457Y-134024895D01*
X262895219Y-134072514D01*
X262847600Y-134120133D01*
X262799980Y-134215371D01*
X205949142Y-103073428D02*
X205949142Y-101930571D01*
X205441142Y-111963428D02*
X205441142Y-110820571D01*
X206012571Y-111392000D02*
X204869714Y-111392000D01*
X252998666Y-110828380D02*
X253332000Y-110352190D01*
X253570095Y-110828380D02*
X253570095Y-109828380D01*
X253189142Y-109828380D01*
X253093904Y-109876000D01*
X253046285Y-109923619D01*
X252998666Y-110018857D01*
X252998666Y-110161714D01*
X253046285Y-110256952D01*
X253093904Y-110304571D01*
X253189142Y-110352190D01*
X253570095Y-110352190D01*
X252046285Y-110828380D02*
X252617714Y-110828380D01*
X252332000Y-110828380D02*
X252332000Y-109828380D01*
X252427238Y-109971238D01*
X252522476Y-110066476D01*
X252617714Y-110114095D01*
X259094666Y-102954380D02*
X259428000Y-102478190D01*
X259666095Y-102954380D02*
X259666095Y-101954380D01*
X259285142Y-101954380D01*
X259189904Y-102002000D01*
X259142285Y-102049619D01*
X259094666Y-102144857D01*
X259094666Y-102287714D01*
X259142285Y-102382952D01*
X259189904Y-102430571D01*
X259285142Y-102478190D01*
X259666095Y-102478190D01*
X258761333Y-101954380D02*
X258142285Y-101954380D01*
X258475619Y-102335333D01*
X258332761Y-102335333D01*
X258237523Y-102382952D01*
X258189904Y-102430571D01*
X258142285Y-102525809D01*
X258142285Y-102763904D01*
X258189904Y-102859142D01*
X258237523Y-102906761D01*
X258332761Y-102954380D01*
X258618476Y-102954380D01*
X258713714Y-102906761D01*
X258761333Y-102859142D01*
X246140666Y-141359180D02*
X246474000Y-140882990D01*
X246712095Y-141359180D02*
X246712095Y-140359180D01*
X246331142Y-140359180D01*
X246235904Y-140406800D01*
X246188285Y-140454419D01*
X246140666Y-140549657D01*
X246140666Y-140692514D01*
X246188285Y-140787752D01*
X246235904Y-140835371D01*
X246331142Y-140882990D01*
X246712095Y-140882990D01*
X245235904Y-140359180D02*
X245712095Y-140359180D01*
X245759714Y-140835371D01*
X245712095Y-140787752D01*
X245616857Y-140740133D01*
X245378761Y-140740133D01*
X245283523Y-140787752D01*
X245235904Y-140835371D01*
X245188285Y-140930609D01*
X245188285Y-141168704D01*
X245235904Y-141263942D01*
X245283523Y-141311561D01*
X245378761Y-141359180D01*
X245616857Y-141359180D01*
X245712095Y-141311561D01*
X245759714Y-141263942D01*
X246851866Y-149306380D02*
X247185200Y-148830190D01*
X247423295Y-149306380D02*
X247423295Y-148306380D01*
X247042342Y-148306380D01*
X246947104Y-148354000D01*
X246899485Y-148401619D01*
X246851866Y-148496857D01*
X246851866Y-148639714D01*
X246899485Y-148734952D01*
X246947104Y-148782571D01*
X247042342Y-148830190D01*
X247423295Y-148830190D01*
X246518533Y-148306380D02*
X245851866Y-148306380D01*
X246280438Y-149306380D01*
X250458666Y-141816380D02*
X250792000Y-141340190D01*
X251030095Y-141816380D02*
X251030095Y-140816380D01*
X250649142Y-140816380D01*
X250553904Y-140864000D01*
X250506285Y-140911619D01*
X250458666Y-141006857D01*
X250458666Y-141149714D01*
X250506285Y-141244952D01*
X250553904Y-141292571D01*
X250649142Y-141340190D01*
X251030095Y-141340190D01*
X249887238Y-141244952D02*
X249982476Y-141197333D01*
X250030095Y-141149714D01*
X250077714Y-141054476D01*
X250077714Y-141006857D01*
X250030095Y-140911619D01*
X249982476Y-140864000D01*
X249887238Y-140816380D01*
X249696761Y-140816380D01*
X249601523Y-140864000D01*
X249553904Y-140911619D01*
X249506285Y-141006857D01*
X249506285Y-141054476D01*
X249553904Y-141149714D01*
X249601523Y-141197333D01*
X249696761Y-141244952D01*
X249887238Y-141244952D01*
X249982476Y-141292571D01*
X250030095Y-141340190D01*
X250077714Y-141435428D01*
X250077714Y-141625904D01*
X250030095Y-141721142D01*
X249982476Y-141768761D01*
X249887238Y-141816380D01*
X249696761Y-141816380D01*
X249601523Y-141768761D01*
X249553904Y-141721142D01*
X249506285Y-141625904D01*
X249506285Y-141435428D01*
X249553904Y-141340190D01*
X249601523Y-141292571D01*
X249696761Y-141244952D01*
X257316666Y-141308380D02*
X257650000Y-140832190D01*
X257888095Y-141308380D02*
X257888095Y-140308380D01*
X257507142Y-140308380D01*
X257411904Y-140356000D01*
X257364285Y-140403619D01*
X257316666Y-140498857D01*
X257316666Y-140641714D01*
X257364285Y-140736952D01*
X257411904Y-140784571D01*
X257507142Y-140832190D01*
X257888095Y-140832190D01*
X256840476Y-141308380D02*
X256650000Y-141308380D01*
X256554761Y-141260761D01*
X256507142Y-141213142D01*
X256411904Y-141070285D01*
X256364285Y-140879809D01*
X256364285Y-140498857D01*
X256411904Y-140403619D01*
X256459523Y-140356000D01*
X256554761Y-140308380D01*
X256745238Y-140308380D01*
X256840476Y-140356000D01*
X256888095Y-140403619D01*
X256935714Y-140498857D01*
X256935714Y-140736952D01*
X256888095Y-140832190D01*
X256840476Y-140879809D01*
X256745238Y-140927428D01*
X256554761Y-140927428D01*
X256459523Y-140879809D01*
X256411904Y-140832190D01*
X256364285Y-140736952D01*
X255760857Y-136228380D02*
X256094190Y-135752190D01*
X256332285Y-136228380D02*
X256332285Y-135228380D01*
X255951333Y-135228380D01*
X255856095Y-135276000D01*
X255808476Y-135323619D01*
X255760857Y-135418857D01*
X255760857Y-135561714D01*
X255808476Y-135656952D01*
X255856095Y-135704571D01*
X255951333Y-135752190D01*
X256332285Y-135752190D01*
X254808476Y-136228380D02*
X255379904Y-136228380D01*
X255094190Y-136228380D02*
X255094190Y-135228380D01*
X255189428Y-135371238D01*
X255284666Y-135466476D01*
X255379904Y-135514095D01*
X254189428Y-135228380D02*
X254094190Y-135228380D01*
X253998952Y-135276000D01*
X253951333Y-135323619D01*
X253903714Y-135418857D01*
X253856095Y-135609333D01*
X253856095Y-135847428D01*
X253903714Y-136037904D01*
X253951333Y-136133142D01*
X253998952Y-136180761D01*
X254094190Y-136228380D01*
X254189428Y-136228380D01*
X254284666Y-136180761D01*
X254332285Y-136133142D01*
X254379904Y-136037904D01*
X254427523Y-135847428D01*
X254427523Y-135609333D01*
X254379904Y-135418857D01*
X254332285Y-135323619D01*
X254284666Y-135276000D01*
X254189428Y-135228380D01*
X225344380Y-107193142D02*
X224868190Y-106859809D01*
X225344380Y-106621714D02*
X224344380Y-106621714D01*
X224344380Y-107002666D01*
X224392000Y-107097904D01*
X224439619Y-107145523D01*
X224534857Y-107193142D01*
X224677714Y-107193142D01*
X224772952Y-107145523D01*
X224820571Y-107097904D01*
X224868190Y-107002666D01*
X224868190Y-106621714D01*
X225344380Y-108145523D02*
X225344380Y-107574095D01*
X225344380Y-107859809D02*
X224344380Y-107859809D01*
X224487238Y-107764571D01*
X224582476Y-107669333D01*
X224630095Y-107574095D01*
X225344380Y-109097904D02*
X225344380Y-108526476D01*
X225344380Y-108812190D02*
X224344380Y-108812190D01*
X224487238Y-108716952D01*
X224582476Y-108621714D01*
X224630095Y-108526476D01*
X258046857Y-121750380D02*
X258380190Y-121274190D01*
X258618285Y-121750380D02*
X258618285Y-120750380D01*
X258237333Y-120750380D01*
X258142095Y-120798000D01*
X258094476Y-120845619D01*
X258046857Y-120940857D01*
X258046857Y-121083714D01*
X258094476Y-121178952D01*
X258142095Y-121226571D01*
X258237333Y-121274190D01*
X258618285Y-121274190D01*
X257094476Y-121750380D02*
X257665904Y-121750380D01*
X257380190Y-121750380D02*
X257380190Y-120750380D01*
X257475428Y-120893238D01*
X257570666Y-120988476D01*
X257665904Y-121036095D01*
X256713523Y-120845619D02*
X256665904Y-120798000D01*
X256570666Y-120750380D01*
X256332571Y-120750380D01*
X256237333Y-120798000D01*
X256189714Y-120845619D01*
X256142095Y-120940857D01*
X256142095Y-121036095D01*
X256189714Y-121178952D01*
X256761142Y-121750380D01*
X256142095Y-121750380D01*
X252966857Y-127338380D02*
X253300190Y-126862190D01*
X253538285Y-127338380D02*
X253538285Y-126338380D01*
X253157333Y-126338380D01*
X253062095Y-126386000D01*
X253014476Y-126433619D01*
X252966857Y-126528857D01*
X252966857Y-126671714D01*
X253014476Y-126766952D01*
X253062095Y-126814571D01*
X253157333Y-126862190D01*
X253538285Y-126862190D01*
X252014476Y-127338380D02*
X252585904Y-127338380D01*
X252300190Y-127338380D02*
X252300190Y-126338380D01*
X252395428Y-126481238D01*
X252490666Y-126576476D01*
X252585904Y-126624095D01*
X251681142Y-126338380D02*
X251062095Y-126338380D01*
X251395428Y-126719333D01*
X251252571Y-126719333D01*
X251157333Y-126766952D01*
X251109714Y-126814571D01*
X251062095Y-126909809D01*
X251062095Y-127147904D01*
X251109714Y-127243142D01*
X251157333Y-127290761D01*
X251252571Y-127338380D01*
X251538285Y-127338380D01*
X251633523Y-127290761D01*
X251681142Y-127243142D01*
X218791180Y-107193142D02*
X218314990Y-106859809D01*
X218791180Y-106621714D02*
X217791180Y-106621714D01*
X217791180Y-107002666D01*
X217838800Y-107097904D01*
X217886419Y-107145523D01*
X217981657Y-107193142D01*
X218124514Y-107193142D01*
X218219752Y-107145523D01*
X218267371Y-107097904D01*
X218314990Y-107002666D01*
X218314990Y-106621714D01*
X218791180Y-108145523D02*
X218791180Y-107574095D01*
X218791180Y-107859809D02*
X217791180Y-107859809D01*
X217934038Y-107764571D01*
X218029276Y-107669333D01*
X218076895Y-107574095D01*
X218124514Y-109002666D02*
X218791180Y-109002666D01*
X217743561Y-108764571D02*
X218457847Y-108526476D01*
X218457847Y-109145523D01*
X259062857Y-113622380D02*
X259396190Y-113146190D01*
X259634285Y-113622380D02*
X259634285Y-112622380D01*
X259253333Y-112622380D01*
X259158095Y-112670000D01*
X259110476Y-112717619D01*
X259062857Y-112812857D01*
X259062857Y-112955714D01*
X259110476Y-113050952D01*
X259158095Y-113098571D01*
X259253333Y-113146190D01*
X259634285Y-113146190D01*
X258110476Y-113622380D02*
X258681904Y-113622380D01*
X258396190Y-113622380D02*
X258396190Y-112622380D01*
X258491428Y-112765238D01*
X258586666Y-112860476D01*
X258681904Y-112908095D01*
X257205714Y-112622380D02*
X257681904Y-112622380D01*
X257729523Y-113098571D01*
X257681904Y-113050952D01*
X257586666Y-113003333D01*
X257348571Y-113003333D01*
X257253333Y-113050952D01*
X257205714Y-113098571D01*
X257158095Y-113193809D01*
X257158095Y-113431904D01*
X257205714Y-113527142D01*
X257253333Y-113574761D01*
X257348571Y-113622380D01*
X257586666Y-113622380D01*
X257681904Y-113574761D01*
X257729523Y-113527142D01*
X255760857Y-118702380D02*
X256094190Y-118226190D01*
X256332285Y-118702380D02*
X256332285Y-117702380D01*
X255951333Y-117702380D01*
X255856095Y-117750000D01*
X255808476Y-117797619D01*
X255760857Y-117892857D01*
X255760857Y-118035714D01*
X255808476Y-118130952D01*
X255856095Y-118178571D01*
X255951333Y-118226190D01*
X256332285Y-118226190D01*
X254808476Y-118702380D02*
X255379904Y-118702380D01*
X255094190Y-118702380D02*
X255094190Y-117702380D01*
X255189428Y-117845238D01*
X255284666Y-117940476D01*
X255379904Y-117988095D01*
X253951333Y-117702380D02*
X254141809Y-117702380D01*
X254237047Y-117750000D01*
X254284666Y-117797619D01*
X254379904Y-117940476D01*
X254427523Y-118130952D01*
X254427523Y-118511904D01*
X254379904Y-118607142D01*
X254332285Y-118654761D01*
X254237047Y-118702380D01*
X254046571Y-118702380D01*
X253951333Y-118654761D01*
X253903714Y-118607142D01*
X253856095Y-118511904D01*
X253856095Y-118273809D01*
X253903714Y-118178571D01*
X253951333Y-118130952D01*
X254046571Y-118083333D01*
X254237047Y-118083333D01*
X254332285Y-118130952D01*
X254379904Y-118178571D01*
X254427523Y-118273809D01*
X257297580Y-132643942D02*
X256821390Y-132310609D01*
X257297580Y-132072514D02*
X256297580Y-132072514D01*
X256297580Y-132453466D01*
X256345200Y-132548704D01*
X256392819Y-132596323D01*
X256488057Y-132643942D01*
X256630914Y-132643942D01*
X256726152Y-132596323D01*
X256773771Y-132548704D01*
X256821390Y-132453466D01*
X256821390Y-132072514D01*
X257297580Y-133596323D02*
X257297580Y-133024895D01*
X257297580Y-133310609D02*
X256297580Y-133310609D01*
X256440438Y-133215371D01*
X256535676Y-133120133D01*
X256583295Y-133024895D01*
X256297580Y-133929657D02*
X256297580Y-134596323D01*
X257297580Y-134167752D01*
D12*
X246454190Y-128850571D02*
X246216095Y-128683904D01*
X246454190Y-128564857D02*
X245954190Y-128564857D01*
X245954190Y-128755333D01*
X245978000Y-128802952D01*
X246001809Y-128826761D01*
X246049428Y-128850571D01*
X246120857Y-128850571D01*
X246168476Y-128826761D01*
X246192285Y-128802952D01*
X246216095Y-128755333D01*
X246216095Y-128564857D01*
X246454190Y-129326761D02*
X246454190Y-129041047D01*
X246454190Y-129183904D02*
X245954190Y-129183904D01*
X246025619Y-129136285D01*
X246073238Y-129088666D01*
X246097047Y-129041047D01*
X246168476Y-129612476D02*
X246144666Y-129564857D01*
X246120857Y-129541047D01*
X246073238Y-129517238D01*
X246049428Y-129517238D01*
X246001809Y-129541047D01*
X245978000Y-129564857D01*
X245954190Y-129612476D01*
X245954190Y-129707714D01*
X245978000Y-129755333D01*
X246001809Y-129779142D01*
X246049428Y-129802952D01*
X246073238Y-129802952D01*
X246120857Y-129779142D01*
X246144666Y-129755333D01*
X246168476Y-129707714D01*
X246168476Y-129612476D01*
X246192285Y-129564857D01*
X246216095Y-129541047D01*
X246263714Y-129517238D01*
X246358952Y-129517238D01*
X246406571Y-129541047D01*
X246430380Y-129564857D01*
X246454190Y-129612476D01*
X246454190Y-129707714D01*
X246430380Y-129755333D01*
X246406571Y-129779142D01*
X246358952Y-129802952D01*
X246263714Y-129802952D01*
X246216095Y-129779142D01*
X246192285Y-129755333D01*
X246168476Y-129707714D01*
D10*
X260840857Y-127973380D02*
X261174190Y-127497190D01*
X261412285Y-127973380D02*
X261412285Y-126973380D01*
X261031333Y-126973380D01*
X260936095Y-127021000D01*
X260888476Y-127068619D01*
X260840857Y-127163857D01*
X260840857Y-127306714D01*
X260888476Y-127401952D01*
X260936095Y-127449571D01*
X261031333Y-127497190D01*
X261412285Y-127497190D01*
X259888476Y-127973380D02*
X260459904Y-127973380D01*
X260174190Y-127973380D02*
X260174190Y-126973380D01*
X260269428Y-127116238D01*
X260364666Y-127211476D01*
X260459904Y-127259095D01*
X259412285Y-127973380D02*
X259221809Y-127973380D01*
X259126571Y-127925761D01*
X259078952Y-127878142D01*
X258983714Y-127735285D01*
X258936095Y-127544809D01*
X258936095Y-127163857D01*
X258983714Y-127068619D01*
X259031333Y-127021000D01*
X259126571Y-126973380D01*
X259317047Y-126973380D01*
X259412285Y-127021000D01*
X259459904Y-127068619D01*
X259507523Y-127163857D01*
X259507523Y-127401952D01*
X259459904Y-127497190D01*
X259412285Y-127544809D01*
X259317047Y-127592428D01*
X259126571Y-127592428D01*
X259031333Y-127544809D01*
X258983714Y-127497190D01*
X258936095Y-127401952D01*
D12*
X246555790Y-120824171D02*
X246317695Y-120657504D01*
X246555790Y-120538457D02*
X246055790Y-120538457D01*
X246055790Y-120728933D01*
X246079600Y-120776552D01*
X246103409Y-120800361D01*
X246151028Y-120824171D01*
X246222457Y-120824171D01*
X246270076Y-120800361D01*
X246293885Y-120776552D01*
X246317695Y-120728933D01*
X246317695Y-120538457D01*
X246103409Y-121014647D02*
X246079600Y-121038457D01*
X246055790Y-121086076D01*
X246055790Y-121205123D01*
X246079600Y-121252742D01*
X246103409Y-121276552D01*
X246151028Y-121300361D01*
X246198647Y-121300361D01*
X246270076Y-121276552D01*
X246555790Y-120990838D01*
X246555790Y-121300361D01*
X246055790Y-121609885D02*
X246055790Y-121657504D01*
X246079600Y-121705123D01*
X246103409Y-121728933D01*
X246151028Y-121752742D01*
X246246266Y-121776552D01*
X246365314Y-121776552D01*
X246460552Y-121752742D01*
X246508171Y-121728933D01*
X246531980Y-121705123D01*
X246555790Y-121657504D01*
X246555790Y-121609885D01*
X246531980Y-121562266D01*
X246508171Y-121538457D01*
X246460552Y-121514647D01*
X246365314Y-121490838D01*
X246246266Y-121490838D01*
X246151028Y-121514647D01*
X246103409Y-121538457D01*
X246079600Y-121562266D01*
X246055790Y-121609885D01*
D10*
X261250666Y-110775142D02*
X261298285Y-110822761D01*
X261441142Y-110870380D01*
X261536380Y-110870380D01*
X261679238Y-110822761D01*
X261774476Y-110727523D01*
X261822095Y-110632285D01*
X261869714Y-110441809D01*
X261869714Y-110298952D01*
X261822095Y-110108476D01*
X261774476Y-110013238D01*
X261679238Y-109918000D01*
X261536380Y-109870380D01*
X261441142Y-109870380D01*
X261298285Y-109918000D01*
X261250666Y-109965619D01*
X260393523Y-110203714D02*
X260393523Y-110870380D01*
X260631619Y-109822761D02*
X260869714Y-110537047D01*
X260250666Y-110537047D01*
M02*
