G04 #@! TF.GenerationSoftware,KiCad,Pcbnew,5.1.2-f72e74a~84~ubuntu18.04.1*
G04 #@! TF.CreationDate,2019-08-12T01:15:30+02:00*
G04 #@! TF.ProjectId,RPI_Peripheral_Expander,5250495f-5065-4726-9970-686572616c5f,rev?*
G04 #@! TF.SameCoordinates,Original*
G04 #@! TF.FileFunction,Soldermask,Top*
G04 #@! TF.FilePolarity,Negative*
%FSLAX46Y46*%
G04 Gerber Fmt 4.6, Leading zero omitted, Abs format (unit mm)*
G04 Created by KiCad (PCBNEW 5.1.2-f72e74a~84~ubuntu18.04.1) date 2019-08-12 01:15:30*
%MOMM*%
%LPD*%
G04 APERTURE LIST*
%ADD10O,1.740000X2.200000*%
%ADD11C,0.150000*%
%ADD12C,1.740000*%
%ADD13R,1.700000X1.700000*%
%ADD14O,1.700000X1.700000*%
%ADD15C,2.700000*%
%ADD16C,1.600000*%
%ADD17C,1.250000*%
%ADD18R,3.000000X3.000000*%
%ADD19C,3.000000*%
%ADD20R,2.000000X3.800000*%
%ADD21R,2.000000X1.500000*%
%ADD22R,2.500000X1.500000*%
%ADD23O,2.500000X1.500000*%
%ADD24C,1.700000*%
%ADD25R,1.600000X1.600000*%
%ADD26O,1.600000X1.600000*%
G04 APERTURE END LIST*
D10*
X260198000Y-116218000D03*
X257658000Y-116218000D03*
D11*
G36*
X255762505Y-115119204D02*
G01*
X255786773Y-115122804D01*
X255810572Y-115128765D01*
X255833671Y-115137030D01*
X255855850Y-115147520D01*
X255876893Y-115160132D01*
X255896599Y-115174747D01*
X255914777Y-115191223D01*
X255931253Y-115209401D01*
X255945868Y-115229107D01*
X255958480Y-115250150D01*
X255968970Y-115272329D01*
X255977235Y-115295428D01*
X255983196Y-115319227D01*
X255986796Y-115343495D01*
X255988000Y-115367999D01*
X255988000Y-117068001D01*
X255986796Y-117092505D01*
X255983196Y-117116773D01*
X255977235Y-117140572D01*
X255968970Y-117163671D01*
X255958480Y-117185850D01*
X255945868Y-117206893D01*
X255931253Y-117226599D01*
X255914777Y-117244777D01*
X255896599Y-117261253D01*
X255876893Y-117275868D01*
X255855850Y-117288480D01*
X255833671Y-117298970D01*
X255810572Y-117307235D01*
X255786773Y-117313196D01*
X255762505Y-117316796D01*
X255738001Y-117318000D01*
X254497999Y-117318000D01*
X254473495Y-117316796D01*
X254449227Y-117313196D01*
X254425428Y-117307235D01*
X254402329Y-117298970D01*
X254380150Y-117288480D01*
X254359107Y-117275868D01*
X254339401Y-117261253D01*
X254321223Y-117244777D01*
X254304747Y-117226599D01*
X254290132Y-117206893D01*
X254277520Y-117185850D01*
X254267030Y-117163671D01*
X254258765Y-117140572D01*
X254252804Y-117116773D01*
X254249204Y-117092505D01*
X254248000Y-117068001D01*
X254248000Y-115367999D01*
X254249204Y-115343495D01*
X254252804Y-115319227D01*
X254258765Y-115295428D01*
X254267030Y-115272329D01*
X254277520Y-115250150D01*
X254290132Y-115229107D01*
X254304747Y-115209401D01*
X254321223Y-115191223D01*
X254339401Y-115174747D01*
X254359107Y-115160132D01*
X254380150Y-115147520D01*
X254402329Y-115137030D01*
X254425428Y-115128765D01*
X254449227Y-115122804D01*
X254473495Y-115119204D01*
X254497999Y-115118000D01*
X255738001Y-115118000D01*
X255762505Y-115119204D01*
X255762505Y-115119204D01*
G37*
D12*
X255118000Y-116218000D03*
D10*
X234544000Y-119266000D03*
D11*
G36*
X237728505Y-118167204D02*
G01*
X237752773Y-118170804D01*
X237776572Y-118176765D01*
X237799671Y-118185030D01*
X237821850Y-118195520D01*
X237842893Y-118208132D01*
X237862599Y-118222747D01*
X237880777Y-118239223D01*
X237897253Y-118257401D01*
X237911868Y-118277107D01*
X237924480Y-118298150D01*
X237934970Y-118320329D01*
X237943235Y-118343428D01*
X237949196Y-118367227D01*
X237952796Y-118391495D01*
X237954000Y-118415999D01*
X237954000Y-120116001D01*
X237952796Y-120140505D01*
X237949196Y-120164773D01*
X237943235Y-120188572D01*
X237934970Y-120211671D01*
X237924480Y-120233850D01*
X237911868Y-120254893D01*
X237897253Y-120274599D01*
X237880777Y-120292777D01*
X237862599Y-120309253D01*
X237842893Y-120323868D01*
X237821850Y-120336480D01*
X237799671Y-120346970D01*
X237776572Y-120355235D01*
X237752773Y-120361196D01*
X237728505Y-120364796D01*
X237704001Y-120366000D01*
X236463999Y-120366000D01*
X236439495Y-120364796D01*
X236415227Y-120361196D01*
X236391428Y-120355235D01*
X236368329Y-120346970D01*
X236346150Y-120336480D01*
X236325107Y-120323868D01*
X236305401Y-120309253D01*
X236287223Y-120292777D01*
X236270747Y-120274599D01*
X236256132Y-120254893D01*
X236243520Y-120233850D01*
X236233030Y-120211671D01*
X236224765Y-120188572D01*
X236218804Y-120164773D01*
X236215204Y-120140505D01*
X236214000Y-120116001D01*
X236214000Y-118415999D01*
X236215204Y-118391495D01*
X236218804Y-118367227D01*
X236224765Y-118343428D01*
X236233030Y-118320329D01*
X236243520Y-118298150D01*
X236256132Y-118277107D01*
X236270747Y-118257401D01*
X236287223Y-118239223D01*
X236305401Y-118222747D01*
X236325107Y-118208132D01*
X236346150Y-118195520D01*
X236368329Y-118185030D01*
X236391428Y-118176765D01*
X236415227Y-118170804D01*
X236439495Y-118167204D01*
X236463999Y-118166000D01*
X237704001Y-118166000D01*
X237728505Y-118167204D01*
X237728505Y-118167204D01*
G37*
D12*
X237084000Y-119266000D03*
D13*
X208370000Y-98770000D03*
D14*
X208370000Y-96230000D03*
X210910000Y-98770000D03*
X210910000Y-96230000D03*
X213450000Y-98770000D03*
X213450000Y-96230000D03*
X215990000Y-98770000D03*
X215990000Y-96230000D03*
X218530000Y-98770000D03*
X218530000Y-96230000D03*
X221070000Y-98770000D03*
X221070000Y-96230000D03*
X223610000Y-98770000D03*
X223610000Y-96230000D03*
X226150000Y-98770000D03*
X226150000Y-96230000D03*
X228690000Y-98770000D03*
X228690000Y-96230000D03*
X231230000Y-98770000D03*
X231230000Y-96230000D03*
X233770000Y-98770000D03*
X233770000Y-96230000D03*
X236310000Y-98770000D03*
X236310000Y-96230000D03*
X238850000Y-98770000D03*
X238850000Y-96230000D03*
X241390000Y-98770000D03*
X241390000Y-96230000D03*
X243930000Y-98770000D03*
X243930000Y-96230000D03*
X246470000Y-98770000D03*
X246470000Y-96230000D03*
X249010000Y-98770000D03*
X249010000Y-96230000D03*
X251550000Y-98770000D03*
X251550000Y-96230000D03*
X254090000Y-98770000D03*
X254090000Y-96230000D03*
X256630000Y-98770000D03*
X256630000Y-96230000D03*
D15*
X261500000Y-146500000D03*
X203500000Y-146500000D03*
X261500000Y-97500000D03*
X203500000Y-97500000D03*
D16*
X209906000Y-130386000D03*
X209906000Y-126886000D03*
X213462000Y-140094000D03*
X216962000Y-140094000D03*
D11*
G36*
X221611504Y-124742204D02*
G01*
X221635773Y-124745804D01*
X221659571Y-124751765D01*
X221682671Y-124760030D01*
X221704849Y-124770520D01*
X221725893Y-124783133D01*
X221745598Y-124797747D01*
X221763777Y-124814223D01*
X221780253Y-124832402D01*
X221794867Y-124852107D01*
X221807480Y-124873151D01*
X221817970Y-124895329D01*
X221826235Y-124918429D01*
X221832196Y-124942227D01*
X221835796Y-124966496D01*
X221837000Y-124991000D01*
X221837000Y-126241000D01*
X221835796Y-126265504D01*
X221832196Y-126289773D01*
X221826235Y-126313571D01*
X221817970Y-126336671D01*
X221807480Y-126358849D01*
X221794867Y-126379893D01*
X221780253Y-126399598D01*
X221763777Y-126417777D01*
X221745598Y-126434253D01*
X221725893Y-126448867D01*
X221704849Y-126461480D01*
X221682671Y-126471970D01*
X221659571Y-126480235D01*
X221635773Y-126486196D01*
X221611504Y-126489796D01*
X221587000Y-126491000D01*
X220837000Y-126491000D01*
X220812496Y-126489796D01*
X220788227Y-126486196D01*
X220764429Y-126480235D01*
X220741329Y-126471970D01*
X220719151Y-126461480D01*
X220698107Y-126448867D01*
X220678402Y-126434253D01*
X220660223Y-126417777D01*
X220643747Y-126399598D01*
X220629133Y-126379893D01*
X220616520Y-126358849D01*
X220606030Y-126336671D01*
X220597765Y-126313571D01*
X220591804Y-126289773D01*
X220588204Y-126265504D01*
X220587000Y-126241000D01*
X220587000Y-124991000D01*
X220588204Y-124966496D01*
X220591804Y-124942227D01*
X220597765Y-124918429D01*
X220606030Y-124895329D01*
X220616520Y-124873151D01*
X220629133Y-124852107D01*
X220643747Y-124832402D01*
X220660223Y-124814223D01*
X220678402Y-124797747D01*
X220698107Y-124783133D01*
X220719151Y-124770520D01*
X220741329Y-124760030D01*
X220764429Y-124751765D01*
X220788227Y-124745804D01*
X220812496Y-124742204D01*
X220837000Y-124741000D01*
X221587000Y-124741000D01*
X221611504Y-124742204D01*
X221611504Y-124742204D01*
G37*
D17*
X221212000Y-125616000D03*
D11*
G36*
X218811504Y-124742204D02*
G01*
X218835773Y-124745804D01*
X218859571Y-124751765D01*
X218882671Y-124760030D01*
X218904849Y-124770520D01*
X218925893Y-124783133D01*
X218945598Y-124797747D01*
X218963777Y-124814223D01*
X218980253Y-124832402D01*
X218994867Y-124852107D01*
X219007480Y-124873151D01*
X219017970Y-124895329D01*
X219026235Y-124918429D01*
X219032196Y-124942227D01*
X219035796Y-124966496D01*
X219037000Y-124991000D01*
X219037000Y-126241000D01*
X219035796Y-126265504D01*
X219032196Y-126289773D01*
X219026235Y-126313571D01*
X219017970Y-126336671D01*
X219007480Y-126358849D01*
X218994867Y-126379893D01*
X218980253Y-126399598D01*
X218963777Y-126417777D01*
X218945598Y-126434253D01*
X218925893Y-126448867D01*
X218904849Y-126461480D01*
X218882671Y-126471970D01*
X218859571Y-126480235D01*
X218835773Y-126486196D01*
X218811504Y-126489796D01*
X218787000Y-126491000D01*
X218037000Y-126491000D01*
X218012496Y-126489796D01*
X217988227Y-126486196D01*
X217964429Y-126480235D01*
X217941329Y-126471970D01*
X217919151Y-126461480D01*
X217898107Y-126448867D01*
X217878402Y-126434253D01*
X217860223Y-126417777D01*
X217843747Y-126399598D01*
X217829133Y-126379893D01*
X217816520Y-126358849D01*
X217806030Y-126336671D01*
X217797765Y-126313571D01*
X217791804Y-126289773D01*
X217788204Y-126265504D01*
X217787000Y-126241000D01*
X217787000Y-124991000D01*
X217788204Y-124966496D01*
X217791804Y-124942227D01*
X217797765Y-124918429D01*
X217806030Y-124895329D01*
X217816520Y-124873151D01*
X217829133Y-124852107D01*
X217843747Y-124832402D01*
X217860223Y-124814223D01*
X217878402Y-124797747D01*
X217898107Y-124783133D01*
X217919151Y-124770520D01*
X217941329Y-124760030D01*
X217964429Y-124751765D01*
X217988227Y-124745804D01*
X218012496Y-124742204D01*
X218037000Y-124741000D01*
X218787000Y-124741000D01*
X218811504Y-124742204D01*
X218811504Y-124742204D01*
G37*
D17*
X218412000Y-125616000D03*
D11*
G36*
X223255504Y-135784204D02*
G01*
X223279773Y-135787804D01*
X223303571Y-135793765D01*
X223326671Y-135802030D01*
X223348849Y-135812520D01*
X223369893Y-135825133D01*
X223389598Y-135839747D01*
X223407777Y-135856223D01*
X223424253Y-135874402D01*
X223438867Y-135894107D01*
X223451480Y-135915151D01*
X223461970Y-135937329D01*
X223470235Y-135960429D01*
X223476196Y-135984227D01*
X223479796Y-136008496D01*
X223481000Y-136033000D01*
X223481000Y-136783000D01*
X223479796Y-136807504D01*
X223476196Y-136831773D01*
X223470235Y-136855571D01*
X223461970Y-136878671D01*
X223451480Y-136900849D01*
X223438867Y-136921893D01*
X223424253Y-136941598D01*
X223407777Y-136959777D01*
X223389598Y-136976253D01*
X223369893Y-136990867D01*
X223348849Y-137003480D01*
X223326671Y-137013970D01*
X223303571Y-137022235D01*
X223279773Y-137028196D01*
X223255504Y-137031796D01*
X223231000Y-137033000D01*
X221981000Y-137033000D01*
X221956496Y-137031796D01*
X221932227Y-137028196D01*
X221908429Y-137022235D01*
X221885329Y-137013970D01*
X221863151Y-137003480D01*
X221842107Y-136990867D01*
X221822402Y-136976253D01*
X221804223Y-136959777D01*
X221787747Y-136941598D01*
X221773133Y-136921893D01*
X221760520Y-136900849D01*
X221750030Y-136878671D01*
X221741765Y-136855571D01*
X221735804Y-136831773D01*
X221732204Y-136807504D01*
X221731000Y-136783000D01*
X221731000Y-136033000D01*
X221732204Y-136008496D01*
X221735804Y-135984227D01*
X221741765Y-135960429D01*
X221750030Y-135937329D01*
X221760520Y-135915151D01*
X221773133Y-135894107D01*
X221787747Y-135874402D01*
X221804223Y-135856223D01*
X221822402Y-135839747D01*
X221842107Y-135825133D01*
X221863151Y-135812520D01*
X221885329Y-135802030D01*
X221908429Y-135793765D01*
X221932227Y-135787804D01*
X221956496Y-135784204D01*
X221981000Y-135783000D01*
X223231000Y-135783000D01*
X223255504Y-135784204D01*
X223255504Y-135784204D01*
G37*
D17*
X222606000Y-136408000D03*
D11*
G36*
X223255504Y-138584204D02*
G01*
X223279773Y-138587804D01*
X223303571Y-138593765D01*
X223326671Y-138602030D01*
X223348849Y-138612520D01*
X223369893Y-138625133D01*
X223389598Y-138639747D01*
X223407777Y-138656223D01*
X223424253Y-138674402D01*
X223438867Y-138694107D01*
X223451480Y-138715151D01*
X223461970Y-138737329D01*
X223470235Y-138760429D01*
X223476196Y-138784227D01*
X223479796Y-138808496D01*
X223481000Y-138833000D01*
X223481000Y-139583000D01*
X223479796Y-139607504D01*
X223476196Y-139631773D01*
X223470235Y-139655571D01*
X223461970Y-139678671D01*
X223451480Y-139700849D01*
X223438867Y-139721893D01*
X223424253Y-139741598D01*
X223407777Y-139759777D01*
X223389598Y-139776253D01*
X223369893Y-139790867D01*
X223348849Y-139803480D01*
X223326671Y-139813970D01*
X223303571Y-139822235D01*
X223279773Y-139828196D01*
X223255504Y-139831796D01*
X223231000Y-139833000D01*
X221981000Y-139833000D01*
X221956496Y-139831796D01*
X221932227Y-139828196D01*
X221908429Y-139822235D01*
X221885329Y-139813970D01*
X221863151Y-139803480D01*
X221842107Y-139790867D01*
X221822402Y-139776253D01*
X221804223Y-139759777D01*
X221787747Y-139741598D01*
X221773133Y-139721893D01*
X221760520Y-139700849D01*
X221750030Y-139678671D01*
X221741765Y-139655571D01*
X221735804Y-139631773D01*
X221732204Y-139607504D01*
X221731000Y-139583000D01*
X221731000Y-138833000D01*
X221732204Y-138808496D01*
X221735804Y-138784227D01*
X221741765Y-138760429D01*
X221750030Y-138737329D01*
X221760520Y-138715151D01*
X221773133Y-138694107D01*
X221787747Y-138674402D01*
X221804223Y-138656223D01*
X221822402Y-138639747D01*
X221842107Y-138625133D01*
X221863151Y-138612520D01*
X221885329Y-138602030D01*
X221908429Y-138593765D01*
X221932227Y-138587804D01*
X221956496Y-138584204D01*
X221981000Y-138583000D01*
X223231000Y-138583000D01*
X223255504Y-138584204D01*
X223255504Y-138584204D01*
G37*
D17*
X222606000Y-139208000D03*
D11*
G36*
X263143504Y-110264204D02*
G01*
X263167773Y-110267804D01*
X263191571Y-110273765D01*
X263214671Y-110282030D01*
X263236849Y-110292520D01*
X263257893Y-110305133D01*
X263277598Y-110319747D01*
X263295777Y-110336223D01*
X263312253Y-110354402D01*
X263326867Y-110374107D01*
X263339480Y-110395151D01*
X263349970Y-110417329D01*
X263358235Y-110440429D01*
X263364196Y-110464227D01*
X263367796Y-110488496D01*
X263369000Y-110513000D01*
X263369000Y-111763000D01*
X263367796Y-111787504D01*
X263364196Y-111811773D01*
X263358235Y-111835571D01*
X263349970Y-111858671D01*
X263339480Y-111880849D01*
X263326867Y-111901893D01*
X263312253Y-111921598D01*
X263295777Y-111939777D01*
X263277598Y-111956253D01*
X263257893Y-111970867D01*
X263236849Y-111983480D01*
X263214671Y-111993970D01*
X263191571Y-112002235D01*
X263167773Y-112008196D01*
X263143504Y-112011796D01*
X263119000Y-112013000D01*
X262369000Y-112013000D01*
X262344496Y-112011796D01*
X262320227Y-112008196D01*
X262296429Y-112002235D01*
X262273329Y-111993970D01*
X262251151Y-111983480D01*
X262230107Y-111970867D01*
X262210402Y-111956253D01*
X262192223Y-111939777D01*
X262175747Y-111921598D01*
X262161133Y-111901893D01*
X262148520Y-111880849D01*
X262138030Y-111858671D01*
X262129765Y-111835571D01*
X262123804Y-111811773D01*
X262120204Y-111787504D01*
X262119000Y-111763000D01*
X262119000Y-110513000D01*
X262120204Y-110488496D01*
X262123804Y-110464227D01*
X262129765Y-110440429D01*
X262138030Y-110417329D01*
X262148520Y-110395151D01*
X262161133Y-110374107D01*
X262175747Y-110354402D01*
X262192223Y-110336223D01*
X262210402Y-110319747D01*
X262230107Y-110305133D01*
X262251151Y-110292520D01*
X262273329Y-110282030D01*
X262296429Y-110273765D01*
X262320227Y-110267804D01*
X262344496Y-110264204D01*
X262369000Y-110263000D01*
X263119000Y-110263000D01*
X263143504Y-110264204D01*
X263143504Y-110264204D01*
G37*
D17*
X262744000Y-111138000D03*
D11*
G36*
X260343504Y-110264204D02*
G01*
X260367773Y-110267804D01*
X260391571Y-110273765D01*
X260414671Y-110282030D01*
X260436849Y-110292520D01*
X260457893Y-110305133D01*
X260477598Y-110319747D01*
X260495777Y-110336223D01*
X260512253Y-110354402D01*
X260526867Y-110374107D01*
X260539480Y-110395151D01*
X260549970Y-110417329D01*
X260558235Y-110440429D01*
X260564196Y-110464227D01*
X260567796Y-110488496D01*
X260569000Y-110513000D01*
X260569000Y-111763000D01*
X260567796Y-111787504D01*
X260564196Y-111811773D01*
X260558235Y-111835571D01*
X260549970Y-111858671D01*
X260539480Y-111880849D01*
X260526867Y-111901893D01*
X260512253Y-111921598D01*
X260495777Y-111939777D01*
X260477598Y-111956253D01*
X260457893Y-111970867D01*
X260436849Y-111983480D01*
X260414671Y-111993970D01*
X260391571Y-112002235D01*
X260367773Y-112008196D01*
X260343504Y-112011796D01*
X260319000Y-112013000D01*
X259569000Y-112013000D01*
X259544496Y-112011796D01*
X259520227Y-112008196D01*
X259496429Y-112002235D01*
X259473329Y-111993970D01*
X259451151Y-111983480D01*
X259430107Y-111970867D01*
X259410402Y-111956253D01*
X259392223Y-111939777D01*
X259375747Y-111921598D01*
X259361133Y-111901893D01*
X259348520Y-111880849D01*
X259338030Y-111858671D01*
X259329765Y-111835571D01*
X259323804Y-111811773D01*
X259320204Y-111787504D01*
X259319000Y-111763000D01*
X259319000Y-110513000D01*
X259320204Y-110488496D01*
X259323804Y-110464227D01*
X259329765Y-110440429D01*
X259338030Y-110417329D01*
X259348520Y-110395151D01*
X259361133Y-110374107D01*
X259375747Y-110354402D01*
X259392223Y-110336223D01*
X259410402Y-110319747D01*
X259430107Y-110305133D01*
X259451151Y-110292520D01*
X259473329Y-110282030D01*
X259496429Y-110273765D01*
X259520227Y-110267804D01*
X259544496Y-110264204D01*
X259569000Y-110263000D01*
X260319000Y-110263000D01*
X260343504Y-110264204D01*
X260343504Y-110264204D01*
G37*
D17*
X259944000Y-111138000D03*
D18*
X203556000Y-104280000D03*
D19*
X203556000Y-109280000D03*
D10*
X254356000Y-105296000D03*
X256896000Y-105296000D03*
X259436000Y-105296000D03*
D11*
G36*
X262620505Y-104197204D02*
G01*
X262644773Y-104200804D01*
X262668572Y-104206765D01*
X262691671Y-104215030D01*
X262713850Y-104225520D01*
X262734893Y-104238132D01*
X262754599Y-104252747D01*
X262772777Y-104269223D01*
X262789253Y-104287401D01*
X262803868Y-104307107D01*
X262816480Y-104328150D01*
X262826970Y-104350329D01*
X262835235Y-104373428D01*
X262841196Y-104397227D01*
X262844796Y-104421495D01*
X262846000Y-104445999D01*
X262846000Y-106146001D01*
X262844796Y-106170505D01*
X262841196Y-106194773D01*
X262835235Y-106218572D01*
X262826970Y-106241671D01*
X262816480Y-106263850D01*
X262803868Y-106284893D01*
X262789253Y-106304599D01*
X262772777Y-106322777D01*
X262754599Y-106339253D01*
X262734893Y-106353868D01*
X262713850Y-106366480D01*
X262691671Y-106376970D01*
X262668572Y-106385235D01*
X262644773Y-106391196D01*
X262620505Y-106394796D01*
X262596001Y-106396000D01*
X261355999Y-106396000D01*
X261331495Y-106394796D01*
X261307227Y-106391196D01*
X261283428Y-106385235D01*
X261260329Y-106376970D01*
X261238150Y-106366480D01*
X261217107Y-106353868D01*
X261197401Y-106339253D01*
X261179223Y-106322777D01*
X261162747Y-106304599D01*
X261148132Y-106284893D01*
X261135520Y-106263850D01*
X261125030Y-106241671D01*
X261116765Y-106218572D01*
X261110804Y-106194773D01*
X261107204Y-106170505D01*
X261106000Y-106146001D01*
X261106000Y-104445999D01*
X261107204Y-104421495D01*
X261110804Y-104397227D01*
X261116765Y-104373428D01*
X261125030Y-104350329D01*
X261135520Y-104328150D01*
X261148132Y-104307107D01*
X261162747Y-104287401D01*
X261179223Y-104269223D01*
X261197401Y-104252747D01*
X261217107Y-104238132D01*
X261238150Y-104225520D01*
X261260329Y-104215030D01*
X261283428Y-104206765D01*
X261307227Y-104200804D01*
X261331495Y-104197204D01*
X261355999Y-104196000D01*
X262596001Y-104196000D01*
X262620505Y-104197204D01*
X262620505Y-104197204D01*
G37*
D12*
X261976000Y-105296000D03*
D11*
G36*
X237982505Y-104197204D02*
G01*
X238006773Y-104200804D01*
X238030572Y-104206765D01*
X238053671Y-104215030D01*
X238075850Y-104225520D01*
X238096893Y-104238132D01*
X238116599Y-104252747D01*
X238134777Y-104269223D01*
X238151253Y-104287401D01*
X238165868Y-104307107D01*
X238178480Y-104328150D01*
X238188970Y-104350329D01*
X238197235Y-104373428D01*
X238203196Y-104397227D01*
X238206796Y-104421495D01*
X238208000Y-104445999D01*
X238208000Y-106146001D01*
X238206796Y-106170505D01*
X238203196Y-106194773D01*
X238197235Y-106218572D01*
X238188970Y-106241671D01*
X238178480Y-106263850D01*
X238165868Y-106284893D01*
X238151253Y-106304599D01*
X238134777Y-106322777D01*
X238116599Y-106339253D01*
X238096893Y-106353868D01*
X238075850Y-106366480D01*
X238053671Y-106376970D01*
X238030572Y-106385235D01*
X238006773Y-106391196D01*
X237982505Y-106394796D01*
X237958001Y-106396000D01*
X236717999Y-106396000D01*
X236693495Y-106394796D01*
X236669227Y-106391196D01*
X236645428Y-106385235D01*
X236622329Y-106376970D01*
X236600150Y-106366480D01*
X236579107Y-106353868D01*
X236559401Y-106339253D01*
X236541223Y-106322777D01*
X236524747Y-106304599D01*
X236510132Y-106284893D01*
X236497520Y-106263850D01*
X236487030Y-106241671D01*
X236478765Y-106218572D01*
X236472804Y-106194773D01*
X236469204Y-106170505D01*
X236468000Y-106146001D01*
X236468000Y-104445999D01*
X236469204Y-104421495D01*
X236472804Y-104397227D01*
X236478765Y-104373428D01*
X236487030Y-104350329D01*
X236497520Y-104328150D01*
X236510132Y-104307107D01*
X236524747Y-104287401D01*
X236541223Y-104269223D01*
X236559401Y-104252747D01*
X236579107Y-104238132D01*
X236600150Y-104225520D01*
X236622329Y-104215030D01*
X236645428Y-104206765D01*
X236669227Y-104200804D01*
X236693495Y-104197204D01*
X236717999Y-104196000D01*
X237958001Y-104196000D01*
X237982505Y-104197204D01*
X237982505Y-104197204D01*
G37*
D12*
X237338000Y-105296000D03*
D10*
X234798000Y-105296000D03*
X232258000Y-105296000D03*
X229718000Y-105296000D03*
D11*
G36*
X243062505Y-144329204D02*
G01*
X243086773Y-144332804D01*
X243110572Y-144338765D01*
X243133671Y-144347030D01*
X243155850Y-144357520D01*
X243176893Y-144370132D01*
X243196599Y-144384747D01*
X243214777Y-144401223D01*
X243231253Y-144419401D01*
X243245868Y-144439107D01*
X243258480Y-144460150D01*
X243268970Y-144482329D01*
X243277235Y-144505428D01*
X243283196Y-144529227D01*
X243286796Y-144553495D01*
X243288000Y-144577999D01*
X243288000Y-146278001D01*
X243286796Y-146302505D01*
X243283196Y-146326773D01*
X243277235Y-146350572D01*
X243268970Y-146373671D01*
X243258480Y-146395850D01*
X243245868Y-146416893D01*
X243231253Y-146436599D01*
X243214777Y-146454777D01*
X243196599Y-146471253D01*
X243176893Y-146485868D01*
X243155850Y-146498480D01*
X243133671Y-146508970D01*
X243110572Y-146517235D01*
X243086773Y-146523196D01*
X243062505Y-146526796D01*
X243038001Y-146528000D01*
X241797999Y-146528000D01*
X241773495Y-146526796D01*
X241749227Y-146523196D01*
X241725428Y-146517235D01*
X241702329Y-146508970D01*
X241680150Y-146498480D01*
X241659107Y-146485868D01*
X241639401Y-146471253D01*
X241621223Y-146454777D01*
X241604747Y-146436599D01*
X241590132Y-146416893D01*
X241577520Y-146395850D01*
X241567030Y-146373671D01*
X241558765Y-146350572D01*
X241552804Y-146326773D01*
X241549204Y-146302505D01*
X241548000Y-146278001D01*
X241548000Y-144577999D01*
X241549204Y-144553495D01*
X241552804Y-144529227D01*
X241558765Y-144505428D01*
X241567030Y-144482329D01*
X241577520Y-144460150D01*
X241590132Y-144439107D01*
X241604747Y-144419401D01*
X241621223Y-144401223D01*
X241639401Y-144384747D01*
X241659107Y-144370132D01*
X241680150Y-144357520D01*
X241702329Y-144347030D01*
X241725428Y-144338765D01*
X241749227Y-144332804D01*
X241773495Y-144329204D01*
X241797999Y-144328000D01*
X243038001Y-144328000D01*
X243062505Y-144329204D01*
X243062505Y-144329204D01*
G37*
D12*
X242418000Y-145428000D03*
D10*
X239878000Y-145428000D03*
X237338000Y-145428000D03*
X234798000Y-145428000D03*
X234544000Y-129680000D03*
D11*
G36*
X237728505Y-128581204D02*
G01*
X237752773Y-128584804D01*
X237776572Y-128590765D01*
X237799671Y-128599030D01*
X237821850Y-128609520D01*
X237842893Y-128622132D01*
X237862599Y-128636747D01*
X237880777Y-128653223D01*
X237897253Y-128671401D01*
X237911868Y-128691107D01*
X237924480Y-128712150D01*
X237934970Y-128734329D01*
X237943235Y-128757428D01*
X237949196Y-128781227D01*
X237952796Y-128805495D01*
X237954000Y-128829999D01*
X237954000Y-130530001D01*
X237952796Y-130554505D01*
X237949196Y-130578773D01*
X237943235Y-130602572D01*
X237934970Y-130625671D01*
X237924480Y-130647850D01*
X237911868Y-130668893D01*
X237897253Y-130688599D01*
X237880777Y-130706777D01*
X237862599Y-130723253D01*
X237842893Y-130737868D01*
X237821850Y-130750480D01*
X237799671Y-130760970D01*
X237776572Y-130769235D01*
X237752773Y-130775196D01*
X237728505Y-130778796D01*
X237704001Y-130780000D01*
X236463999Y-130780000D01*
X236439495Y-130778796D01*
X236415227Y-130775196D01*
X236391428Y-130769235D01*
X236368329Y-130760970D01*
X236346150Y-130750480D01*
X236325107Y-130737868D01*
X236305401Y-130723253D01*
X236287223Y-130706777D01*
X236270747Y-130688599D01*
X236256132Y-130668893D01*
X236243520Y-130647850D01*
X236233030Y-130625671D01*
X236224765Y-130602572D01*
X236218804Y-130578773D01*
X236215204Y-130554505D01*
X236214000Y-130530001D01*
X236214000Y-128829999D01*
X236215204Y-128805495D01*
X236218804Y-128781227D01*
X236224765Y-128757428D01*
X236233030Y-128734329D01*
X236243520Y-128712150D01*
X236256132Y-128691107D01*
X236270747Y-128671401D01*
X236287223Y-128653223D01*
X236305401Y-128636747D01*
X236325107Y-128622132D01*
X236346150Y-128609520D01*
X236368329Y-128599030D01*
X236391428Y-128590765D01*
X236415227Y-128584804D01*
X236439495Y-128581204D01*
X236463999Y-128580000D01*
X237704001Y-128580000D01*
X237728505Y-128581204D01*
X237728505Y-128581204D01*
G37*
D12*
X237084000Y-129680000D03*
D11*
G36*
X231124505Y-128581204D02*
G01*
X231148773Y-128584804D01*
X231172572Y-128590765D01*
X231195671Y-128599030D01*
X231217850Y-128609520D01*
X231238893Y-128622132D01*
X231258599Y-128636747D01*
X231276777Y-128653223D01*
X231293253Y-128671401D01*
X231307868Y-128691107D01*
X231320480Y-128712150D01*
X231330970Y-128734329D01*
X231339235Y-128757428D01*
X231345196Y-128781227D01*
X231348796Y-128805495D01*
X231350000Y-128829999D01*
X231350000Y-130530001D01*
X231348796Y-130554505D01*
X231345196Y-130578773D01*
X231339235Y-130602572D01*
X231330970Y-130625671D01*
X231320480Y-130647850D01*
X231307868Y-130668893D01*
X231293253Y-130688599D01*
X231276777Y-130706777D01*
X231258599Y-130723253D01*
X231238893Y-130737868D01*
X231217850Y-130750480D01*
X231195671Y-130760970D01*
X231172572Y-130769235D01*
X231148773Y-130775196D01*
X231124505Y-130778796D01*
X231100001Y-130780000D01*
X229859999Y-130780000D01*
X229835495Y-130778796D01*
X229811227Y-130775196D01*
X229787428Y-130769235D01*
X229764329Y-130760970D01*
X229742150Y-130750480D01*
X229721107Y-130737868D01*
X229701401Y-130723253D01*
X229683223Y-130706777D01*
X229666747Y-130688599D01*
X229652132Y-130668893D01*
X229639520Y-130647850D01*
X229629030Y-130625671D01*
X229620765Y-130602572D01*
X229614804Y-130578773D01*
X229611204Y-130554505D01*
X229610000Y-130530001D01*
X229610000Y-128829999D01*
X229611204Y-128805495D01*
X229614804Y-128781227D01*
X229620765Y-128757428D01*
X229629030Y-128734329D01*
X229639520Y-128712150D01*
X229652132Y-128691107D01*
X229666747Y-128671401D01*
X229683223Y-128653223D01*
X229701401Y-128636747D01*
X229721107Y-128622132D01*
X229742150Y-128609520D01*
X229764329Y-128599030D01*
X229787428Y-128590765D01*
X229811227Y-128584804D01*
X229835495Y-128581204D01*
X229859999Y-128580000D01*
X231100001Y-128580000D01*
X231124505Y-128581204D01*
X231124505Y-128581204D01*
G37*
D12*
X230480000Y-129680000D03*
D10*
X227940000Y-129680000D03*
D11*
G36*
X229605504Y-108984204D02*
G01*
X229629773Y-108987804D01*
X229653571Y-108993765D01*
X229676671Y-109002030D01*
X229698849Y-109012520D01*
X229719893Y-109025133D01*
X229739598Y-109039747D01*
X229757777Y-109056223D01*
X229774253Y-109074402D01*
X229788867Y-109094107D01*
X229801480Y-109115151D01*
X229811970Y-109137329D01*
X229820235Y-109160429D01*
X229826196Y-109184227D01*
X229829796Y-109208496D01*
X229831000Y-109233000D01*
X229831000Y-109983000D01*
X229829796Y-110007504D01*
X229826196Y-110031773D01*
X229820235Y-110055571D01*
X229811970Y-110078671D01*
X229801480Y-110100849D01*
X229788867Y-110121893D01*
X229774253Y-110141598D01*
X229757777Y-110159777D01*
X229739598Y-110176253D01*
X229719893Y-110190867D01*
X229698849Y-110203480D01*
X229676671Y-110213970D01*
X229653571Y-110222235D01*
X229629773Y-110228196D01*
X229605504Y-110231796D01*
X229581000Y-110233000D01*
X228331000Y-110233000D01*
X228306496Y-110231796D01*
X228282227Y-110228196D01*
X228258429Y-110222235D01*
X228235329Y-110213970D01*
X228213151Y-110203480D01*
X228192107Y-110190867D01*
X228172402Y-110176253D01*
X228154223Y-110159777D01*
X228137747Y-110141598D01*
X228123133Y-110121893D01*
X228110520Y-110100849D01*
X228100030Y-110078671D01*
X228091765Y-110055571D01*
X228085804Y-110031773D01*
X228082204Y-110007504D01*
X228081000Y-109983000D01*
X228081000Y-109233000D01*
X228082204Y-109208496D01*
X228085804Y-109184227D01*
X228091765Y-109160429D01*
X228100030Y-109137329D01*
X228110520Y-109115151D01*
X228123133Y-109094107D01*
X228137747Y-109074402D01*
X228154223Y-109056223D01*
X228172402Y-109039747D01*
X228192107Y-109025133D01*
X228213151Y-109012520D01*
X228235329Y-109002030D01*
X228258429Y-108993765D01*
X228282227Y-108987804D01*
X228306496Y-108984204D01*
X228331000Y-108983000D01*
X229581000Y-108983000D01*
X229605504Y-108984204D01*
X229605504Y-108984204D01*
G37*
D17*
X228956000Y-109608000D03*
D11*
G36*
X229605504Y-111784204D02*
G01*
X229629773Y-111787804D01*
X229653571Y-111793765D01*
X229676671Y-111802030D01*
X229698849Y-111812520D01*
X229719893Y-111825133D01*
X229739598Y-111839747D01*
X229757777Y-111856223D01*
X229774253Y-111874402D01*
X229788867Y-111894107D01*
X229801480Y-111915151D01*
X229811970Y-111937329D01*
X229820235Y-111960429D01*
X229826196Y-111984227D01*
X229829796Y-112008496D01*
X229831000Y-112033000D01*
X229831000Y-112783000D01*
X229829796Y-112807504D01*
X229826196Y-112831773D01*
X229820235Y-112855571D01*
X229811970Y-112878671D01*
X229801480Y-112900849D01*
X229788867Y-112921893D01*
X229774253Y-112941598D01*
X229757777Y-112959777D01*
X229739598Y-112976253D01*
X229719893Y-112990867D01*
X229698849Y-113003480D01*
X229676671Y-113013970D01*
X229653571Y-113022235D01*
X229629773Y-113028196D01*
X229605504Y-113031796D01*
X229581000Y-113033000D01*
X228331000Y-113033000D01*
X228306496Y-113031796D01*
X228282227Y-113028196D01*
X228258429Y-113022235D01*
X228235329Y-113013970D01*
X228213151Y-113003480D01*
X228192107Y-112990867D01*
X228172402Y-112976253D01*
X228154223Y-112959777D01*
X228137747Y-112941598D01*
X228123133Y-112921893D01*
X228110520Y-112900849D01*
X228100030Y-112878671D01*
X228091765Y-112855571D01*
X228085804Y-112831773D01*
X228082204Y-112807504D01*
X228081000Y-112783000D01*
X228081000Y-112033000D01*
X228082204Y-112008496D01*
X228085804Y-111984227D01*
X228091765Y-111960429D01*
X228100030Y-111937329D01*
X228110520Y-111915151D01*
X228123133Y-111894107D01*
X228137747Y-111874402D01*
X228154223Y-111856223D01*
X228172402Y-111839747D01*
X228192107Y-111825133D01*
X228213151Y-111812520D01*
X228235329Y-111802030D01*
X228258429Y-111793765D01*
X228282227Y-111787804D01*
X228306496Y-111784204D01*
X228331000Y-111783000D01*
X229581000Y-111783000D01*
X229605504Y-111784204D01*
X229605504Y-111784204D01*
G37*
D17*
X228956000Y-112408000D03*
D11*
G36*
X232907504Y-111784204D02*
G01*
X232931773Y-111787804D01*
X232955571Y-111793765D01*
X232978671Y-111802030D01*
X233000849Y-111812520D01*
X233021893Y-111825133D01*
X233041598Y-111839747D01*
X233059777Y-111856223D01*
X233076253Y-111874402D01*
X233090867Y-111894107D01*
X233103480Y-111915151D01*
X233113970Y-111937329D01*
X233122235Y-111960429D01*
X233128196Y-111984227D01*
X233131796Y-112008496D01*
X233133000Y-112033000D01*
X233133000Y-112783000D01*
X233131796Y-112807504D01*
X233128196Y-112831773D01*
X233122235Y-112855571D01*
X233113970Y-112878671D01*
X233103480Y-112900849D01*
X233090867Y-112921893D01*
X233076253Y-112941598D01*
X233059777Y-112959777D01*
X233041598Y-112976253D01*
X233021893Y-112990867D01*
X233000849Y-113003480D01*
X232978671Y-113013970D01*
X232955571Y-113022235D01*
X232931773Y-113028196D01*
X232907504Y-113031796D01*
X232883000Y-113033000D01*
X231633000Y-113033000D01*
X231608496Y-113031796D01*
X231584227Y-113028196D01*
X231560429Y-113022235D01*
X231537329Y-113013970D01*
X231515151Y-113003480D01*
X231494107Y-112990867D01*
X231474402Y-112976253D01*
X231456223Y-112959777D01*
X231439747Y-112941598D01*
X231425133Y-112921893D01*
X231412520Y-112900849D01*
X231402030Y-112878671D01*
X231393765Y-112855571D01*
X231387804Y-112831773D01*
X231384204Y-112807504D01*
X231383000Y-112783000D01*
X231383000Y-112033000D01*
X231384204Y-112008496D01*
X231387804Y-111984227D01*
X231393765Y-111960429D01*
X231402030Y-111937329D01*
X231412520Y-111915151D01*
X231425133Y-111894107D01*
X231439747Y-111874402D01*
X231456223Y-111856223D01*
X231474402Y-111839747D01*
X231494107Y-111825133D01*
X231515151Y-111812520D01*
X231537329Y-111802030D01*
X231560429Y-111793765D01*
X231584227Y-111787804D01*
X231608496Y-111784204D01*
X231633000Y-111783000D01*
X232883000Y-111783000D01*
X232907504Y-111784204D01*
X232907504Y-111784204D01*
G37*
D17*
X232258000Y-112408000D03*
D11*
G36*
X232907504Y-108984204D02*
G01*
X232931773Y-108987804D01*
X232955571Y-108993765D01*
X232978671Y-109002030D01*
X233000849Y-109012520D01*
X233021893Y-109025133D01*
X233041598Y-109039747D01*
X233059777Y-109056223D01*
X233076253Y-109074402D01*
X233090867Y-109094107D01*
X233103480Y-109115151D01*
X233113970Y-109137329D01*
X233122235Y-109160429D01*
X233128196Y-109184227D01*
X233131796Y-109208496D01*
X233133000Y-109233000D01*
X233133000Y-109983000D01*
X233131796Y-110007504D01*
X233128196Y-110031773D01*
X233122235Y-110055571D01*
X233113970Y-110078671D01*
X233103480Y-110100849D01*
X233090867Y-110121893D01*
X233076253Y-110141598D01*
X233059777Y-110159777D01*
X233041598Y-110176253D01*
X233021893Y-110190867D01*
X233000849Y-110203480D01*
X232978671Y-110213970D01*
X232955571Y-110222235D01*
X232931773Y-110228196D01*
X232907504Y-110231796D01*
X232883000Y-110233000D01*
X231633000Y-110233000D01*
X231608496Y-110231796D01*
X231584227Y-110228196D01*
X231560429Y-110222235D01*
X231537329Y-110213970D01*
X231515151Y-110203480D01*
X231494107Y-110190867D01*
X231474402Y-110176253D01*
X231456223Y-110159777D01*
X231439747Y-110141598D01*
X231425133Y-110121893D01*
X231412520Y-110100849D01*
X231402030Y-110078671D01*
X231393765Y-110055571D01*
X231387804Y-110031773D01*
X231384204Y-110007504D01*
X231383000Y-109983000D01*
X231383000Y-109233000D01*
X231384204Y-109208496D01*
X231387804Y-109184227D01*
X231393765Y-109160429D01*
X231402030Y-109137329D01*
X231412520Y-109115151D01*
X231425133Y-109094107D01*
X231439747Y-109074402D01*
X231456223Y-109056223D01*
X231474402Y-109039747D01*
X231494107Y-109025133D01*
X231515151Y-109012520D01*
X231537329Y-109002030D01*
X231560429Y-108993765D01*
X231584227Y-108987804D01*
X231608496Y-108984204D01*
X231633000Y-108983000D01*
X232883000Y-108983000D01*
X232907504Y-108984204D01*
X232907504Y-108984204D01*
G37*
D17*
X232258000Y-109608000D03*
D11*
G36*
X258317504Y-110264204D02*
G01*
X258341773Y-110267804D01*
X258365571Y-110273765D01*
X258388671Y-110282030D01*
X258410849Y-110292520D01*
X258431893Y-110305133D01*
X258451598Y-110319747D01*
X258469777Y-110336223D01*
X258486253Y-110354402D01*
X258500867Y-110374107D01*
X258513480Y-110395151D01*
X258523970Y-110417329D01*
X258532235Y-110440429D01*
X258538196Y-110464227D01*
X258541796Y-110488496D01*
X258543000Y-110513000D01*
X258543000Y-111763000D01*
X258541796Y-111787504D01*
X258538196Y-111811773D01*
X258532235Y-111835571D01*
X258523970Y-111858671D01*
X258513480Y-111880849D01*
X258500867Y-111901893D01*
X258486253Y-111921598D01*
X258469777Y-111939777D01*
X258451598Y-111956253D01*
X258431893Y-111970867D01*
X258410849Y-111983480D01*
X258388671Y-111993970D01*
X258365571Y-112002235D01*
X258341773Y-112008196D01*
X258317504Y-112011796D01*
X258293000Y-112013000D01*
X257543000Y-112013000D01*
X257518496Y-112011796D01*
X257494227Y-112008196D01*
X257470429Y-112002235D01*
X257447329Y-111993970D01*
X257425151Y-111983480D01*
X257404107Y-111970867D01*
X257384402Y-111956253D01*
X257366223Y-111939777D01*
X257349747Y-111921598D01*
X257335133Y-111901893D01*
X257322520Y-111880849D01*
X257312030Y-111858671D01*
X257303765Y-111835571D01*
X257297804Y-111811773D01*
X257294204Y-111787504D01*
X257293000Y-111763000D01*
X257293000Y-110513000D01*
X257294204Y-110488496D01*
X257297804Y-110464227D01*
X257303765Y-110440429D01*
X257312030Y-110417329D01*
X257322520Y-110395151D01*
X257335133Y-110374107D01*
X257349747Y-110354402D01*
X257366223Y-110336223D01*
X257384402Y-110319747D01*
X257404107Y-110305133D01*
X257425151Y-110292520D01*
X257447329Y-110282030D01*
X257470429Y-110273765D01*
X257494227Y-110267804D01*
X257518496Y-110264204D01*
X257543000Y-110263000D01*
X258293000Y-110263000D01*
X258317504Y-110264204D01*
X258317504Y-110264204D01*
G37*
D17*
X257918000Y-111138000D03*
D11*
G36*
X255517504Y-110264204D02*
G01*
X255541773Y-110267804D01*
X255565571Y-110273765D01*
X255588671Y-110282030D01*
X255610849Y-110292520D01*
X255631893Y-110305133D01*
X255651598Y-110319747D01*
X255669777Y-110336223D01*
X255686253Y-110354402D01*
X255700867Y-110374107D01*
X255713480Y-110395151D01*
X255723970Y-110417329D01*
X255732235Y-110440429D01*
X255738196Y-110464227D01*
X255741796Y-110488496D01*
X255743000Y-110513000D01*
X255743000Y-111763000D01*
X255741796Y-111787504D01*
X255738196Y-111811773D01*
X255732235Y-111835571D01*
X255723970Y-111858671D01*
X255713480Y-111880849D01*
X255700867Y-111901893D01*
X255686253Y-111921598D01*
X255669777Y-111939777D01*
X255651598Y-111956253D01*
X255631893Y-111970867D01*
X255610849Y-111983480D01*
X255588671Y-111993970D01*
X255565571Y-112002235D01*
X255541773Y-112008196D01*
X255517504Y-112011796D01*
X255493000Y-112013000D01*
X254743000Y-112013000D01*
X254718496Y-112011796D01*
X254694227Y-112008196D01*
X254670429Y-112002235D01*
X254647329Y-111993970D01*
X254625151Y-111983480D01*
X254604107Y-111970867D01*
X254584402Y-111956253D01*
X254566223Y-111939777D01*
X254549747Y-111921598D01*
X254535133Y-111901893D01*
X254522520Y-111880849D01*
X254512030Y-111858671D01*
X254503765Y-111835571D01*
X254497804Y-111811773D01*
X254494204Y-111787504D01*
X254493000Y-111763000D01*
X254493000Y-110513000D01*
X254494204Y-110488496D01*
X254497804Y-110464227D01*
X254503765Y-110440429D01*
X254512030Y-110417329D01*
X254522520Y-110395151D01*
X254535133Y-110374107D01*
X254549747Y-110354402D01*
X254566223Y-110336223D01*
X254584402Y-110319747D01*
X254604107Y-110305133D01*
X254625151Y-110292520D01*
X254647329Y-110282030D01*
X254670429Y-110273765D01*
X254694227Y-110267804D01*
X254718496Y-110264204D01*
X254743000Y-110263000D01*
X255493000Y-110263000D01*
X255517504Y-110264204D01*
X255517504Y-110264204D01*
G37*
D17*
X255118000Y-111138000D03*
D20*
X216408000Y-130950000D03*
D21*
X222708000Y-130950000D03*
X222708000Y-128650000D03*
X222708000Y-133250000D03*
D22*
X221082000Y-119266000D03*
D23*
X221082000Y-116726000D03*
X221082000Y-114186000D03*
D16*
X209652000Y-105042000D03*
X213152000Y-105042000D03*
D11*
G36*
X249920505Y-144583204D02*
G01*
X249944773Y-144586804D01*
X249968572Y-144592765D01*
X249991671Y-144601030D01*
X250013850Y-144611520D01*
X250034893Y-144624132D01*
X250054599Y-144638747D01*
X250072777Y-144655223D01*
X250089253Y-144673401D01*
X250103868Y-144693107D01*
X250116480Y-144714150D01*
X250126970Y-144736329D01*
X250135235Y-144759428D01*
X250141196Y-144783227D01*
X250144796Y-144807495D01*
X250146000Y-144831999D01*
X250146000Y-146532001D01*
X250144796Y-146556505D01*
X250141196Y-146580773D01*
X250135235Y-146604572D01*
X250126970Y-146627671D01*
X250116480Y-146649850D01*
X250103868Y-146670893D01*
X250089253Y-146690599D01*
X250072777Y-146708777D01*
X250054599Y-146725253D01*
X250034893Y-146739868D01*
X250013850Y-146752480D01*
X249991671Y-146762970D01*
X249968572Y-146771235D01*
X249944773Y-146777196D01*
X249920505Y-146780796D01*
X249896001Y-146782000D01*
X248655999Y-146782000D01*
X248631495Y-146780796D01*
X248607227Y-146777196D01*
X248583428Y-146771235D01*
X248560329Y-146762970D01*
X248538150Y-146752480D01*
X248517107Y-146739868D01*
X248497401Y-146725253D01*
X248479223Y-146708777D01*
X248462747Y-146690599D01*
X248448132Y-146670893D01*
X248435520Y-146649850D01*
X248425030Y-146627671D01*
X248416765Y-146604572D01*
X248410804Y-146580773D01*
X248407204Y-146556505D01*
X248406000Y-146532001D01*
X248406000Y-144831999D01*
X248407204Y-144807495D01*
X248410804Y-144783227D01*
X248416765Y-144759428D01*
X248425030Y-144736329D01*
X248435520Y-144714150D01*
X248448132Y-144693107D01*
X248462747Y-144673401D01*
X248479223Y-144655223D01*
X248497401Y-144638747D01*
X248517107Y-144624132D01*
X248538150Y-144611520D01*
X248560329Y-144601030D01*
X248583428Y-144592765D01*
X248607227Y-144586804D01*
X248631495Y-144583204D01*
X248655999Y-144582000D01*
X249896001Y-144582000D01*
X249920505Y-144583204D01*
X249920505Y-144583204D01*
G37*
D12*
X249276000Y-145682000D03*
D10*
X251816000Y-145682000D03*
X254356000Y-145682000D03*
D11*
G36*
X231124505Y-118167204D02*
G01*
X231148773Y-118170804D01*
X231172572Y-118176765D01*
X231195671Y-118185030D01*
X231217850Y-118195520D01*
X231238893Y-118208132D01*
X231258599Y-118222747D01*
X231276777Y-118239223D01*
X231293253Y-118257401D01*
X231307868Y-118277107D01*
X231320480Y-118298150D01*
X231330970Y-118320329D01*
X231339235Y-118343428D01*
X231345196Y-118367227D01*
X231348796Y-118391495D01*
X231350000Y-118415999D01*
X231350000Y-120116001D01*
X231348796Y-120140505D01*
X231345196Y-120164773D01*
X231339235Y-120188572D01*
X231330970Y-120211671D01*
X231320480Y-120233850D01*
X231307868Y-120254893D01*
X231293253Y-120274599D01*
X231276777Y-120292777D01*
X231258599Y-120309253D01*
X231238893Y-120323868D01*
X231217850Y-120336480D01*
X231195671Y-120346970D01*
X231172572Y-120355235D01*
X231148773Y-120361196D01*
X231124505Y-120364796D01*
X231100001Y-120366000D01*
X229859999Y-120366000D01*
X229835495Y-120364796D01*
X229811227Y-120361196D01*
X229787428Y-120355235D01*
X229764329Y-120346970D01*
X229742150Y-120336480D01*
X229721107Y-120323868D01*
X229701401Y-120309253D01*
X229683223Y-120292777D01*
X229666747Y-120274599D01*
X229652132Y-120254893D01*
X229639520Y-120233850D01*
X229629030Y-120211671D01*
X229620765Y-120188572D01*
X229614804Y-120164773D01*
X229611204Y-120140505D01*
X229610000Y-120116001D01*
X229610000Y-118415999D01*
X229611204Y-118391495D01*
X229614804Y-118367227D01*
X229620765Y-118343428D01*
X229629030Y-118320329D01*
X229639520Y-118298150D01*
X229652132Y-118277107D01*
X229666747Y-118257401D01*
X229683223Y-118239223D01*
X229701401Y-118222747D01*
X229721107Y-118208132D01*
X229742150Y-118195520D01*
X229764329Y-118185030D01*
X229787428Y-118176765D01*
X229811227Y-118170804D01*
X229835495Y-118167204D01*
X229859999Y-118166000D01*
X231100001Y-118166000D01*
X231124505Y-118167204D01*
X231124505Y-118167204D01*
G37*
D12*
X230480000Y-119266000D03*
D10*
X227940000Y-119266000D03*
X260198000Y-138062000D03*
X257658000Y-138062000D03*
D11*
G36*
X255762505Y-136963204D02*
G01*
X255786773Y-136966804D01*
X255810572Y-136972765D01*
X255833671Y-136981030D01*
X255855850Y-136991520D01*
X255876893Y-137004132D01*
X255896599Y-137018747D01*
X255914777Y-137035223D01*
X255931253Y-137053401D01*
X255945868Y-137073107D01*
X255958480Y-137094150D01*
X255968970Y-137116329D01*
X255977235Y-137139428D01*
X255983196Y-137163227D01*
X255986796Y-137187495D01*
X255988000Y-137211999D01*
X255988000Y-138912001D01*
X255986796Y-138936505D01*
X255983196Y-138960773D01*
X255977235Y-138984572D01*
X255968970Y-139007671D01*
X255958480Y-139029850D01*
X255945868Y-139050893D01*
X255931253Y-139070599D01*
X255914777Y-139088777D01*
X255896599Y-139105253D01*
X255876893Y-139119868D01*
X255855850Y-139132480D01*
X255833671Y-139142970D01*
X255810572Y-139151235D01*
X255786773Y-139157196D01*
X255762505Y-139160796D01*
X255738001Y-139162000D01*
X254497999Y-139162000D01*
X254473495Y-139160796D01*
X254449227Y-139157196D01*
X254425428Y-139151235D01*
X254402329Y-139142970D01*
X254380150Y-139132480D01*
X254359107Y-139119868D01*
X254339401Y-139105253D01*
X254321223Y-139088777D01*
X254304747Y-139070599D01*
X254290132Y-139050893D01*
X254277520Y-139029850D01*
X254267030Y-139007671D01*
X254258765Y-138984572D01*
X254252804Y-138960773D01*
X254249204Y-138936505D01*
X254248000Y-138912001D01*
X254248000Y-137211999D01*
X254249204Y-137187495D01*
X254252804Y-137163227D01*
X254258765Y-137139428D01*
X254267030Y-137116329D01*
X254277520Y-137094150D01*
X254290132Y-137073107D01*
X254304747Y-137053401D01*
X254321223Y-137035223D01*
X254339401Y-137018747D01*
X254359107Y-137004132D01*
X254380150Y-136991520D01*
X254402329Y-136981030D01*
X254425428Y-136972765D01*
X254449227Y-136966804D01*
X254473495Y-136963204D01*
X254497999Y-136962000D01*
X255738001Y-136962000D01*
X255762505Y-136963204D01*
X255762505Y-136963204D01*
G37*
D12*
X255118000Y-138062000D03*
D11*
G36*
X255762505Y-122231204D02*
G01*
X255786773Y-122234804D01*
X255810572Y-122240765D01*
X255833671Y-122249030D01*
X255855850Y-122259520D01*
X255876893Y-122272132D01*
X255896599Y-122286747D01*
X255914777Y-122303223D01*
X255931253Y-122321401D01*
X255945868Y-122341107D01*
X255958480Y-122362150D01*
X255968970Y-122384329D01*
X255977235Y-122407428D01*
X255983196Y-122431227D01*
X255986796Y-122455495D01*
X255988000Y-122479999D01*
X255988000Y-124180001D01*
X255986796Y-124204505D01*
X255983196Y-124228773D01*
X255977235Y-124252572D01*
X255968970Y-124275671D01*
X255958480Y-124297850D01*
X255945868Y-124318893D01*
X255931253Y-124338599D01*
X255914777Y-124356777D01*
X255896599Y-124373253D01*
X255876893Y-124387868D01*
X255855850Y-124400480D01*
X255833671Y-124410970D01*
X255810572Y-124419235D01*
X255786773Y-124425196D01*
X255762505Y-124428796D01*
X255738001Y-124430000D01*
X254497999Y-124430000D01*
X254473495Y-124428796D01*
X254449227Y-124425196D01*
X254425428Y-124419235D01*
X254402329Y-124410970D01*
X254380150Y-124400480D01*
X254359107Y-124387868D01*
X254339401Y-124373253D01*
X254321223Y-124356777D01*
X254304747Y-124338599D01*
X254290132Y-124318893D01*
X254277520Y-124297850D01*
X254267030Y-124275671D01*
X254258765Y-124252572D01*
X254252804Y-124228773D01*
X254249204Y-124204505D01*
X254248000Y-124180001D01*
X254248000Y-122479999D01*
X254249204Y-122455495D01*
X254252804Y-122431227D01*
X254258765Y-122407428D01*
X254267030Y-122384329D01*
X254277520Y-122362150D01*
X254290132Y-122341107D01*
X254304747Y-122321401D01*
X254321223Y-122303223D01*
X254339401Y-122286747D01*
X254359107Y-122272132D01*
X254380150Y-122259520D01*
X254402329Y-122249030D01*
X254425428Y-122240765D01*
X254449227Y-122234804D01*
X254473495Y-122231204D01*
X254497999Y-122230000D01*
X255738001Y-122230000D01*
X255762505Y-122231204D01*
X255762505Y-122231204D01*
G37*
D12*
X255118000Y-123330000D03*
D10*
X257658000Y-123330000D03*
X260198000Y-123330000D03*
X217780000Y-104026000D03*
X220320000Y-104026000D03*
X222860000Y-104026000D03*
D11*
G36*
X226044505Y-102927204D02*
G01*
X226068773Y-102930804D01*
X226092572Y-102936765D01*
X226115671Y-102945030D01*
X226137850Y-102955520D01*
X226158893Y-102968132D01*
X226178599Y-102982747D01*
X226196777Y-102999223D01*
X226213253Y-103017401D01*
X226227868Y-103037107D01*
X226240480Y-103058150D01*
X226250970Y-103080329D01*
X226259235Y-103103428D01*
X226265196Y-103127227D01*
X226268796Y-103151495D01*
X226270000Y-103175999D01*
X226270000Y-104876001D01*
X226268796Y-104900505D01*
X226265196Y-104924773D01*
X226259235Y-104948572D01*
X226250970Y-104971671D01*
X226240480Y-104993850D01*
X226227868Y-105014893D01*
X226213253Y-105034599D01*
X226196777Y-105052777D01*
X226178599Y-105069253D01*
X226158893Y-105083868D01*
X226137850Y-105096480D01*
X226115671Y-105106970D01*
X226092572Y-105115235D01*
X226068773Y-105121196D01*
X226044505Y-105124796D01*
X226020001Y-105126000D01*
X224779999Y-105126000D01*
X224755495Y-105124796D01*
X224731227Y-105121196D01*
X224707428Y-105115235D01*
X224684329Y-105106970D01*
X224662150Y-105096480D01*
X224641107Y-105083868D01*
X224621401Y-105069253D01*
X224603223Y-105052777D01*
X224586747Y-105034599D01*
X224572132Y-105014893D01*
X224559520Y-104993850D01*
X224549030Y-104971671D01*
X224540765Y-104948572D01*
X224534804Y-104924773D01*
X224531204Y-104900505D01*
X224530000Y-104876001D01*
X224530000Y-103175999D01*
X224531204Y-103151495D01*
X224534804Y-103127227D01*
X224540765Y-103103428D01*
X224549030Y-103080329D01*
X224559520Y-103058150D01*
X224572132Y-103037107D01*
X224586747Y-103017401D01*
X224603223Y-102999223D01*
X224621401Y-102982747D01*
X224641107Y-102968132D01*
X224662150Y-102955520D01*
X224684329Y-102945030D01*
X224707428Y-102936765D01*
X224731227Y-102930804D01*
X224755495Y-102927204D01*
X224779999Y-102926000D01*
X226020001Y-102926000D01*
X226044505Y-102927204D01*
X226044505Y-102927204D01*
G37*
D12*
X225400000Y-104026000D03*
D11*
G36*
X254492505Y-129343204D02*
G01*
X254516773Y-129346804D01*
X254540572Y-129352765D01*
X254563671Y-129361030D01*
X254585850Y-129371520D01*
X254606893Y-129384132D01*
X254626599Y-129398747D01*
X254644777Y-129415223D01*
X254661253Y-129433401D01*
X254675868Y-129453107D01*
X254688480Y-129474150D01*
X254698970Y-129496329D01*
X254707235Y-129519428D01*
X254713196Y-129543227D01*
X254716796Y-129567495D01*
X254718000Y-129591999D01*
X254718000Y-131292001D01*
X254716796Y-131316505D01*
X254713196Y-131340773D01*
X254707235Y-131364572D01*
X254698970Y-131387671D01*
X254688480Y-131409850D01*
X254675868Y-131430893D01*
X254661253Y-131450599D01*
X254644777Y-131468777D01*
X254626599Y-131485253D01*
X254606893Y-131499868D01*
X254585850Y-131512480D01*
X254563671Y-131522970D01*
X254540572Y-131531235D01*
X254516773Y-131537196D01*
X254492505Y-131540796D01*
X254468001Y-131542000D01*
X253227999Y-131542000D01*
X253203495Y-131540796D01*
X253179227Y-131537196D01*
X253155428Y-131531235D01*
X253132329Y-131522970D01*
X253110150Y-131512480D01*
X253089107Y-131499868D01*
X253069401Y-131485253D01*
X253051223Y-131468777D01*
X253034747Y-131450599D01*
X253020132Y-131430893D01*
X253007520Y-131409850D01*
X252997030Y-131387671D01*
X252988765Y-131364572D01*
X252982804Y-131340773D01*
X252979204Y-131316505D01*
X252978000Y-131292001D01*
X252978000Y-129591999D01*
X252979204Y-129567495D01*
X252982804Y-129543227D01*
X252988765Y-129519428D01*
X252997030Y-129496329D01*
X253007520Y-129474150D01*
X253020132Y-129453107D01*
X253034747Y-129433401D01*
X253051223Y-129415223D01*
X253069401Y-129398747D01*
X253089107Y-129384132D01*
X253110150Y-129371520D01*
X253132329Y-129361030D01*
X253155428Y-129352765D01*
X253179227Y-129346804D01*
X253203495Y-129343204D01*
X253227999Y-129342000D01*
X254468001Y-129342000D01*
X254492505Y-129343204D01*
X254492505Y-129343204D01*
G37*
D12*
X253848000Y-130442000D03*
D10*
X256388000Y-130442000D03*
X258928000Y-130442000D03*
X261468000Y-130442000D03*
D24*
X235052000Y-124600000D03*
X232512000Y-124600000D03*
X229972000Y-124600000D03*
X229972000Y-136538000D03*
X232512000Y-136538000D03*
X235052000Y-136538000D03*
D25*
X249784000Y-139078000D03*
D26*
X242164000Y-106058000D03*
X249784000Y-136538000D03*
X242164000Y-108598000D03*
X249784000Y-133998000D03*
X242164000Y-111138000D03*
X249784000Y-131458000D03*
X242164000Y-113678000D03*
X249784000Y-128918000D03*
X242164000Y-116218000D03*
X249784000Y-126378000D03*
X242164000Y-118758000D03*
X249784000Y-123838000D03*
X242164000Y-121298000D03*
X249784000Y-121298000D03*
X242164000Y-123838000D03*
X249784000Y-118758000D03*
X242164000Y-126378000D03*
X249784000Y-116218000D03*
X242164000Y-128918000D03*
X249784000Y-113678000D03*
X242164000Y-131458000D03*
X249784000Y-111138000D03*
X242164000Y-133998000D03*
X249784000Y-108598000D03*
X242164000Y-136538000D03*
X249784000Y-106058000D03*
X242164000Y-139078000D03*
D22*
X211176000Y-119266000D03*
D23*
X211176000Y-116726000D03*
X211176000Y-114186000D03*
M02*
